<svg width="247" height="199" viewBox="0 0 247 199" fill="none" xmlns="http://www.w3.org/2000/svg">
<path d="M15 91L98.5 8L26.5 92L96.5 174.5L15 91Z" fill="#1059E3" stroke="#FAFCFF" stroke-width="0.5"/>
<path d="M172 92.5L100 8L185.5 92.5V103.5H174L101.5 175L172 92.5Z" fill="#1059E3" stroke="#F2F6FC" stroke-width="0.5"/>
<path d="M70.1924 106H63.1797L61.2061 99.6382H49.8052L47.6636 106H40.8608L51.9048 75.1357H59.2744L70.1924 106ZM59.4004 94.3052L55.5581 82.0854H55.4741L51.5269 94.3052H59.4004ZM97.8148 100.457C98.7387 100.947 99.7885 101.192 100.964 101.192C102.322 101.192 103.428 100.982 104.282 100.562C105.135 100.142 105.814 99.6312 106.318 99.0293C106.836 98.4274 107.221 97.7975 107.473 97.1396C107.725 96.4818 107.921 95.9079 108.061 95.418H114.465C114.115 97.3496 113.534 99.0293 112.722 100.457C111.91 101.871 110.923 103.047 109.762 103.984C108.6 104.922 107.291 105.622 105.835 106.084C104.394 106.546 102.854 106.777 101.216 106.777C98.9206 106.777 96.884 106.399 95.1063 105.643C93.3427 104.873 91.852 103.781 90.6342 102.368C89.4304 100.954 88.5136 99.2533 87.8837 97.2656C87.2538 95.264 86.9389 93.0314 86.9389 90.5679C86.9389 88.6642 87.1208 86.9425 87.4848 85.4028C87.8487 83.8631 88.3526 82.4984 88.9965 81.3086C89.6544 80.1048 90.4242 79.069 91.3061 78.2012C92.1879 77.3193 93.1467 76.5985 94.1825 76.0386C95.2323 75.4647 96.3311 75.0448 97.4789 74.7788C98.6267 74.4989 99.7885 74.3589 100.964 74.3589C102.644 74.3589 104.135 74.5339 105.436 74.8838C106.738 75.2337 107.879 75.7026 108.859 76.2905C109.839 76.8784 110.671 77.5503 111.357 78.3062C112.057 79.062 112.624 79.8459 113.058 80.6577C113.506 81.4556 113.835 82.2604 114.045 83.0723C114.269 83.8701 114.409 84.605 114.465 85.2769H108.019C107.935 84.9829 107.83 84.647 107.704 84.269C107.578 83.8771 107.403 83.4852 107.179 83.0933C106.969 82.7013 106.696 82.3164 106.36 81.9385C106.038 81.5605 105.632 81.2246 105.142 80.9307C104.653 80.6367 104.065 80.3988 103.379 80.2168C102.693 80.0348 101.888 79.9438 100.964 79.9438C100.572 79.9438 100.11 79.9928 99.5785 80.0908C99.0466 80.1888 98.5007 80.3778 97.9408 80.6577C97.3809 80.9237 96.828 81.3016 96.2821 81.7915C95.7362 82.2814 95.2463 82.9253 94.8124 83.7231C94.3925 84.507 94.0495 85.4588 93.7836 86.5786C93.5176 87.6984 93.3847 89.0282 93.3847 90.5679C93.3847 92.2336 93.5596 93.7243 93.9096 95.04C94.2595 96.3558 94.7634 97.4686 95.4213 98.3784C96.0792 99.2882 96.877 99.9811 97.8148 100.457ZM130.623 75.1357H155.903V80.4478H146.475V106H140.03V80.4478H130.623V75.1357Z" fill="#1059E3"/>
<path d="M70.1924 106V106.5H70.8996L70.6638 105.833L70.1924 106ZM63.1797 106L62.7021 106.148L62.8113 106.5H63.1797V106ZM61.2061 99.6382L61.6836 99.49L61.5744 99.1382H61.2061V99.6382ZM49.8052 99.6382V99.1382H49.4459L49.3313 99.4787L49.8052 99.6382ZM47.6636 106V106.5H48.0228L48.1374 106.16L47.6636 106ZM40.8608 106L40.3901 105.832L40.1509 106.5H40.8608V106ZM51.9048 75.1357V74.6357H51.5527L51.434 74.9673L51.9048 75.1357ZM59.2744 75.1357L59.7458 74.969L59.6279 74.6357H59.2744V75.1357ZM59.4004 94.3052V94.8052H60.0817L59.8774 94.1552L59.4004 94.3052ZM55.5581 82.0854L56.0351 81.9355L55.925 81.5854H55.5581V82.0854ZM55.4741 82.0854V81.5854H55.1102L54.9983 81.9318L55.4741 82.0854ZM51.5269 94.3052L51.0511 94.1515L50.8399 94.8052H51.5269V94.3052ZM70.1924 105.5H63.1797V106.5H70.1924V105.5ZM63.6572 105.852L61.6836 99.49L60.7285 99.7863L62.7021 106.148L63.6572 105.852ZM61.2061 99.1382H49.8052V100.138H61.2061V99.1382ZM49.3313 99.4787L47.1897 105.84L48.1374 106.16L50.279 99.7977L49.3313 99.4787ZM47.6636 105.5H40.8608V106.5H47.6636V105.5ZM41.3316 106.168L52.3756 75.3042L51.434 74.9673L40.3901 105.832L41.3316 106.168ZM51.9048 75.6357H59.2744V74.6357H51.9048V75.6357ZM58.803 75.3025L69.721 106.167L70.6638 105.833L59.7458 74.969L58.803 75.3025ZM59.8774 94.1552L56.0351 81.9355L55.0811 82.2354L58.9234 94.4552L59.8774 94.1552ZM55.5581 81.5854H55.4741V82.5854H55.5581V81.5854ZM54.9983 81.9318L51.0511 94.1515L52.0026 94.4589L55.9499 82.2391L54.9983 81.9318ZM51.5269 94.8052H59.4004V93.8052H51.5269V94.8052ZM97.8148 100.457L98.0491 100.015L98.0411 100.011L97.8148 100.457ZM106.318 99.0293L105.939 98.7031L105.935 98.7083L106.318 99.0293ZM108.061 95.418V94.918H107.684L107.58 95.2806L108.061 95.418ZM114.465 95.418L114.957 95.5071L115.063 94.918H114.465V95.418ZM112.722 100.457L113.156 100.706L113.157 100.704L112.722 100.457ZM109.762 103.984L109.448 103.595L109.762 103.984ZM105.835 106.084L105.684 105.607L105.683 105.608L105.835 106.084ZM95.1063 105.643L94.9063 106.101L94.9107 106.103L95.1063 105.643ZM90.6342 102.368L90.2535 102.692L90.2553 102.694L90.6342 102.368ZM87.8837 97.2656L87.4067 97.4157L87.4071 97.4167L87.8837 97.2656ZM87.4848 85.4028L86.9982 85.2878L87.4848 85.4028ZM88.9965 81.3086L88.5577 81.0688L88.5567 81.0706L88.9965 81.3086ZM91.3061 78.2012L91.6568 78.5576L91.6596 78.5547L91.3061 78.2012ZM94.1825 76.0386L94.4203 76.4784L94.4224 76.4773L94.1825 76.0386ZM97.4789 74.7788L97.5918 75.2659L97.5974 75.2646L97.4789 74.7788ZM111.357 78.3062L110.987 78.6422L110.99 78.6459L111.357 78.3062ZM113.058 80.6577L112.617 80.8935L112.622 80.9025L113.058 80.6577ZM114.045 83.0723L113.561 83.1975L113.563 83.2074L114.045 83.0723ZM114.465 85.2769V85.7769H115.008L114.963 85.2353L114.465 85.2769ZM108.019 85.2769L107.538 85.4142L107.642 85.7769H108.019V85.2769ZM107.704 84.269L107.228 84.4221L107.23 84.4272L107.704 84.269ZM107.179 83.0933L106.738 83.3295L106.745 83.3413L107.179 83.0933ZM106.36 81.9385L105.98 82.2628L105.987 82.2707L106.36 81.9385ZM97.9408 80.6577L98.1554 81.1094L98.1644 81.1049L97.9408 80.6577ZM94.8124 83.7231L94.3732 83.4843L94.3717 83.487L94.8124 83.7231ZM95.4213 98.3784L95.0161 98.6714L95.4213 98.3784ZM97.5806 100.899C98.5852 101.431 99.7171 101.692 100.964 101.692V100.692C99.8598 100.692 98.8922 100.462 98.0491 100.015L97.5806 100.899ZM100.964 101.692C102.368 101.692 103.557 101.476 104.502 101.011L104.061 100.113C103.299 100.488 102.276 100.692 100.964 100.692V101.692ZM104.502 101.011C105.406 100.566 106.145 100.016 106.702 99.3503L105.935 98.7083C105.484 99.2467 104.865 99.7178 104.061 100.113L104.502 101.011ZM106.697 99.3554C107.248 98.7154 107.665 98.0365 107.94 97.3185L107.006 96.9608C106.777 97.5585 106.424 98.1395 105.939 98.7032L106.697 99.3554ZM107.94 97.3185C108.195 96.6517 108.397 96.0634 108.542 95.5553L107.58 95.2806C107.445 95.7524 107.255 96.3118 107.006 96.9608L107.94 97.3185ZM108.061 95.918H114.465V94.918H108.061V95.918ZM113.973 95.3288C113.631 97.2155 113.067 98.8397 112.287 100.21L113.157 100.704C114.001 99.2189 114.599 97.4837 114.957 95.5071L113.973 95.3288ZM112.288 100.208C111.505 101.573 110.557 102.7 109.448 103.595L110.076 104.373C111.29 103.393 112.316 102.169 113.156 100.706L112.288 100.208ZM109.448 103.595C108.335 104.493 107.082 105.164 105.684 105.607L105.987 106.561C107.5 106.08 108.864 105.351 110.076 104.373L109.448 103.595ZM105.683 105.608C104.294 106.053 102.806 106.277 101.216 106.277V107.277C102.901 107.277 104.493 107.039 105.988 106.56L105.683 105.608ZM101.216 106.277C98.9754 106.277 97.0073 105.908 95.302 105.183L94.9107 106.103C96.7607 106.89 98.8658 107.277 101.216 107.277V106.277ZM95.3064 105.185C93.6092 104.444 92.1803 103.396 91.013 102.041L90.2553 102.694C91.5236 104.166 93.0761 105.302 94.9063 106.101L95.3064 105.185ZM91.0149 102.044C89.8593 100.686 88.9726 99.0465 88.3603 97.1146L87.4071 97.4167C88.0546 99.46 89.0015 101.221 90.2535 102.692L91.0149 102.044ZM88.3606 97.1155C87.7484 95.1701 87.4389 92.9891 87.4389 90.5679H86.4389C86.4389 93.0737 86.7592 95.3579 87.4067 97.4157L88.3606 97.1155ZM87.4389 90.5679C87.4389 88.6954 87.6179 87.0132 87.9714 85.5178L86.9982 85.2878C86.6237 86.8719 86.4389 88.633 86.4389 90.5679H87.4389ZM87.9714 85.5178C88.3268 84.014 88.8165 82.6917 89.4362 81.5466L88.5567 81.0706C87.8887 82.305 87.3706 83.7123 86.9982 85.2878L87.9714 85.5178ZM89.4352 81.5484C90.0722 80.3829 90.8134 79.3875 91.6568 78.5575L90.9553 77.8448C90.035 78.7505 89.2366 79.8267 88.5577 81.0688L89.4352 81.5484ZM91.6596 78.5547C92.5093 77.7051 93.4295 77.014 94.4203 76.4784L93.9448 75.5987C92.8639 76.183 91.8665 76.9336 90.9525 77.8476L91.6596 78.5547ZM94.4224 76.4773C95.4329 75.9249 96.489 75.5214 97.5918 75.2659L97.366 74.2917C96.1732 74.5681 95.0318 75.0045 93.9427 75.5999L94.4224 76.4773ZM97.5974 75.2646C98.7066 74.994 99.8286 74.8589 100.964 74.8589V73.8589C99.7484 73.8589 98.5468 74.0037 97.3604 74.293L97.5974 75.2646ZM100.964 74.8589C102.61 74.8589 104.056 75.0305 105.307 75.3666L105.566 74.4009C104.213 74.0372 102.678 73.8589 100.964 73.8589V74.8589ZM105.307 75.3666C106.571 75.7066 107.668 76.1591 108.602 76.7193L109.116 75.8618C108.09 75.2462 106.905 74.7608 105.566 74.4009L105.307 75.3666ZM108.602 76.7193C109.544 77.2849 110.338 77.9266 110.987 78.6421L111.728 77.9702C111.005 77.174 110.133 76.4719 109.116 75.8618L108.602 76.7193ZM110.99 78.6459C111.665 79.374 112.205 80.1234 112.617 80.8934L113.499 80.422C113.043 79.5683 112.45 78.75 111.724 77.9664L110.99 78.6459ZM112.622 80.9025C113.051 81.6661 113.363 82.431 113.561 83.1975L114.529 82.9471C114.307 82.0899 113.961 81.245 113.494 80.4129L112.622 80.9025ZM113.563 83.2074C113.781 83.9813 113.914 84.6844 113.966 85.3184L114.963 85.2353C114.904 84.5256 114.757 83.7589 114.526 82.9371L113.563 83.2074ZM114.465 84.7769H108.019V85.7769H114.465V84.7769ZM108.5 85.1395C108.413 84.8369 108.306 84.4938 108.178 84.1109L107.23 84.4272C107.354 84.8001 107.457 85.1289 107.538 85.4142L108.5 85.1395ZM108.18 84.116C108.042 83.6881 107.853 83.2644 107.613 82.8452L106.745 83.3413C106.953 83.706 107.114 84.0662 107.228 84.422L108.18 84.116ZM107.62 82.8572C107.389 82.4263 107.092 82.0096 106.734 81.6063L105.987 82.2707C106.3 82.6232 106.549 82.9763 106.738 83.3294L107.62 82.8572ZM106.741 81.6142C106.379 81.1893 105.929 80.8196 105.4 80.5019L104.885 81.3594C105.336 81.6296 105.698 81.9318 105.98 82.2627L106.741 81.6142ZM105.4 80.5019C104.861 80.1788 104.228 79.9247 103.507 79.7335L103.251 80.7001C103.902 80.8728 104.444 81.0946 104.885 81.3594L105.4 80.5019ZM103.507 79.7335C102.769 79.5377 101.919 79.4438 100.964 79.4438V80.4438C101.857 80.4438 102.617 80.532 103.251 80.7001L103.507 79.7335ZM100.964 79.4438C100.533 79.4438 100.039 79.4975 99.4879 79.5991L99.6691 80.5825C100.181 80.4882 100.612 80.4438 100.964 80.4438V79.4438ZM99.4879 79.5991C98.9032 79.7068 98.3127 79.9128 97.7172 80.2105L98.1644 81.1049C98.6887 80.8428 99.19 80.6708 99.6691 80.5825L99.4879 79.5991ZM97.7263 80.2061C97.1159 80.496 96.5235 80.9031 95.9482 81.4194L96.6161 82.1636C97.1326 81.7001 97.646 81.3513 98.1553 81.1094L97.7263 80.2061ZM95.9482 81.4194C95.3511 81.9552 94.8281 82.6478 94.3732 83.4843L95.2516 83.962C95.6646 83.2028 96.1214 82.6076 96.6161 82.1636L95.9482 81.4194ZM94.3717 83.487C93.9264 84.3182 93.5703 85.3129 93.2971 86.4631L94.2701 86.6941C94.5288 85.6047 94.8586 84.6958 95.2531 83.9593L94.3717 83.487ZM93.2971 86.4631C93.0197 87.631 92.8847 89.0014 92.8847 90.5679H93.8847C93.8847 89.0549 94.0155 87.7658 94.2701 86.6941L93.2971 86.4631ZM92.8847 90.5679C92.8847 92.2677 93.0631 93.8028 93.4264 95.1686L94.3928 94.9115C94.0561 93.6458 93.8847 92.1995 93.8847 90.5679H92.8847ZM93.4264 95.1686C93.7888 96.5312 94.3157 97.7027 95.0161 98.6714L95.8265 98.0854C95.2112 97.2345 94.7302 96.1804 94.3928 94.9115L93.4264 95.1686ZM95.0161 98.6714C95.7174 99.6412 96.575 100.389 97.5886 100.903L98.0411 100.011C97.179 99.5737 96.441 98.9353 95.8265 98.0854L95.0161 98.6714ZM130.623 75.1357V74.6357H130.123V75.1357H130.623ZM155.903 75.1357H156.403V74.6357H155.903V75.1357ZM155.903 80.4478V80.9478H156.403V80.4478H155.903ZM146.475 80.4478V79.9478H145.975V80.4478H146.475ZM146.475 106V106.5H146.975V106H146.475ZM140.03 106H139.53V106.5H140.03V106ZM140.03 80.4478H140.53V79.9478H140.03V80.4478ZM130.623 80.4478H130.123V80.9478H130.623V80.4478ZM130.623 75.6357H155.903V74.6357H130.623V75.6357ZM155.403 75.1357V80.4478H156.403V75.1357H155.403ZM155.903 79.9478H146.475V80.9478H155.903V79.9478ZM145.975 80.4478V106H146.975V80.4478H145.975ZM146.475 105.5H140.03V106.5H146.475V105.5ZM140.53 106V80.4478H139.53V106H140.53ZM140.03 79.9478H130.623V80.9478H140.03V79.9478ZM131.123 80.4478V75.1357H130.123V80.4478H131.123Z" fill="#FFFBFB"/>
<mask id="path-5-outside-1_29_55" maskUnits="userSpaceOnUse" x="142" y="161" width="86" height="15" fill="black">
<rect fill="white" x="142" y="161" width="86" height="15"/>
<path d="M146.348 164.913C146.149 165.104 145.992 165.312 145.878 165.536C145.764 165.755 145.679 165.96 145.622 166.151H143C143.097 165.505 143.288 164.927 143.572 164.416C143.857 163.9 144.227 163.465 144.683 163.111C145.138 162.752 145.673 162.477 146.288 162.286C146.903 162.095 147.586 162 148.338 162C148.976 162 149.559 162.081 150.089 162.244C150.624 162.401 151.105 162.623 151.532 162.909C151.959 163.196 152.332 163.538 152.651 163.937C152.97 164.329 153.235 164.764 153.446 165.242C153.662 165.719 153.824 166.227 153.932 166.766C154.041 167.299 154.095 167.849 154.095 168.416C154.095 169.325 154.001 170.119 153.813 170.799C153.631 171.472 153.386 172.053 153.078 172.541C152.777 173.03 152.426 173.434 152.028 173.754C151.635 174.068 151.225 174.318 150.798 174.503C150.377 174.688 149.955 174.818 149.534 174.891C149.112 174.964 148.725 175 148.372 175C147.604 175 146.915 174.888 146.305 174.663C145.696 174.439 145.167 174.133 144.717 173.745C144.273 173.358 143.908 172.903 143.623 172.381C143.339 171.854 143.137 171.29 143.017 170.689H145.639C145.725 170.942 145.833 171.191 145.964 171.438C146.1 171.685 146.271 171.907 146.476 172.104C146.681 172.3 146.926 172.46 147.211 172.584C147.501 172.701 147.84 172.76 148.227 172.76C148.717 172.755 149.155 172.673 149.542 172.516C149.93 172.359 150.257 172.14 150.525 171.859C150.798 171.573 151.006 171.234 151.148 170.841C151.29 170.448 151.362 170.007 151.362 169.519H147.245V167.481H151.327C151.327 167.285 151.302 167.069 151.251 166.833C151.205 166.597 151.128 166.361 151.02 166.126C150.917 165.884 150.781 165.651 150.61 165.427C150.445 165.197 150.243 164.995 150.004 164.821C149.77 164.647 149.497 164.506 149.184 164.4C148.87 164.293 148.517 164.24 148.125 164.24C147.715 164.24 147.364 164.304 147.074 164.433C146.784 164.562 146.542 164.722 146.348 164.913Z"/>
<path d="M157.699 162.312H166.462V174.688H163.84V164.442H160.159L160.167 166.311C160.173 167.439 160.147 168.435 160.09 169.3C160.039 170.159 159.954 170.908 159.834 171.548C159.72 172.182 159.572 172.715 159.39 173.148C159.214 173.58 159.003 173.928 158.758 174.192C158.513 174.45 158.234 174.635 157.921 174.747C157.608 174.86 157.263 174.916 156.888 174.916C156.58 174.916 156.307 174.896 156.068 174.857C155.834 174.823 155.601 174.759 155.367 174.663L155.359 172.297C155.438 172.337 155.521 172.37 155.606 172.398C155.698 172.421 155.786 172.44 155.871 172.457C155.957 172.468 156.033 172.477 156.102 172.483C156.176 172.488 156.233 172.491 156.273 172.491C156.426 172.491 156.569 172.471 156.7 172.432C156.836 172.387 156.956 172.294 157.058 172.154C157.167 172.014 157.26 171.812 157.34 171.548C157.42 171.284 157.485 170.933 157.537 170.495C157.594 170.058 157.633 169.516 157.656 168.87C157.685 168.225 157.699 167.453 157.699 166.555V162.312Z"/>
<path d="M177.591 169.325H171.433V172.449H178.428V174.688H168.913V162.312H178.129V164.442H171.433V167.187H177.591V169.325Z"/>
<path d="M191.777 174.688H188.455L184.569 169.207L183.288 170.495V174.688H180.665V162.312H183.288V167.347L188.088 162.312H191.478L186.354 167.38L191.777 174.688Z"/>
<path d="M191.999 162.312H202.283V164.442H198.448V174.688H195.826V164.442H191.999V162.312Z"/>
<path d="M211.165 169.948C210.653 170.145 210.072 170.243 209.423 170.243H206.553V174.688H203.931V162.312H209.636C210.302 162.312 210.88 162.401 211.37 162.581C211.865 162.761 212.275 163.022 212.6 163.364C212.925 163.706 213.167 164.122 213.326 164.61C213.485 165.098 213.565 165.654 213.565 166.277C213.565 166.855 213.471 167.389 213.283 167.877C213.095 168.36 212.822 168.778 212.463 169.131C212.11 169.479 211.678 169.752 211.165 169.948ZM206.553 168.104H209.038C209.631 168.104 210.095 167.961 210.431 167.675C210.772 167.389 210.943 166.923 210.943 166.277C210.943 165.952 210.898 165.674 210.806 165.444C210.721 165.214 210.596 165.025 210.431 164.88C210.271 164.728 210.072 164.619 209.833 164.551C209.599 164.478 209.335 164.442 209.038 164.442H206.553V168.104Z"/>
<path d="M218.322 174.503C217.565 174.172 216.936 173.717 216.435 173.139C215.934 172.555 215.558 171.868 215.307 171.076C215.057 170.279 214.932 169.421 214.932 168.5C214.932 167.574 215.057 166.715 215.307 165.924C215.558 165.132 215.934 164.447 216.435 163.869C216.936 163.285 217.565 162.828 218.322 162.497C219.08 162.166 219.962 162 220.97 162C221.898 162 222.735 162.166 223.481 162.497C224.227 162.828 224.859 163.285 225.377 163.869C225.901 164.447 226.302 165.132 226.581 165.924C226.86 166.715 227 167.574 227 168.5C227 169.421 226.86 170.279 226.581 171.076C226.302 171.868 225.901 172.555 225.377 173.139C224.859 173.717 224.227 174.172 223.481 174.503C222.735 174.834 221.898 175 220.97 175C219.962 175 219.08 174.834 218.322 174.503ZM217.554 168.5C217.554 169.117 217.633 169.684 217.793 170.201C217.947 170.723 218.169 171.175 218.459 171.556C218.755 171.932 219.114 172.227 219.535 172.44C219.957 172.654 220.435 172.76 220.97 172.76C221.505 172.76 221.984 172.654 222.405 172.44C222.826 172.227 223.182 171.932 223.473 171.556C223.769 171.175 223.994 170.726 224.147 170.209C224.301 169.687 224.378 169.117 224.378 168.5C224.378 167.883 224.301 167.316 224.147 166.799C223.994 166.277 223.769 165.828 223.473 165.452C223.182 165.07 222.826 164.773 222.405 164.56C221.984 164.346 221.505 164.24 220.97 164.24C220.435 164.24 219.957 164.346 219.535 164.56C219.114 164.773 218.755 165.07 218.459 165.452C218.169 165.828 217.944 166.277 217.784 166.799C217.631 167.316 217.554 167.883 217.554 168.5Z"/>
</mask>
<path d="M146.348 164.913C146.149 165.104 145.992 165.312 145.878 165.536C145.764 165.755 145.679 165.96 145.622 166.151H143C143.097 165.505 143.288 164.927 143.572 164.416C143.857 163.9 144.227 163.465 144.683 163.111C145.138 162.752 145.673 162.477 146.288 162.286C146.903 162.095 147.586 162 148.338 162C148.976 162 149.559 162.081 150.089 162.244C150.624 162.401 151.105 162.623 151.532 162.909C151.959 163.196 152.332 163.538 152.651 163.937C152.97 164.329 153.235 164.764 153.446 165.242C153.662 165.719 153.824 166.227 153.932 166.766C154.041 167.299 154.095 167.849 154.095 168.416C154.095 169.325 154.001 170.119 153.813 170.799C153.631 171.472 153.386 172.053 153.078 172.541C152.777 173.03 152.426 173.434 152.028 173.754C151.635 174.068 151.225 174.318 150.798 174.503C150.377 174.688 149.955 174.818 149.534 174.891C149.112 174.964 148.725 175 148.372 175C147.604 175 146.915 174.888 146.305 174.663C145.696 174.439 145.167 174.133 144.717 173.745C144.273 173.358 143.908 172.903 143.623 172.381C143.339 171.854 143.137 171.29 143.017 170.689H145.639C145.725 170.942 145.833 171.191 145.964 171.438C146.1 171.685 146.271 171.907 146.476 172.104C146.681 172.3 146.926 172.46 147.211 172.584C147.501 172.701 147.84 172.76 148.227 172.76C148.717 172.755 149.155 172.673 149.542 172.516C149.93 172.359 150.257 172.14 150.525 171.859C150.798 171.573 151.006 171.234 151.148 170.841C151.29 170.448 151.362 170.007 151.362 169.519H147.245V167.481H151.327C151.327 167.285 151.302 167.069 151.251 166.833C151.205 166.597 151.128 166.361 151.02 166.126C150.917 165.884 150.781 165.651 150.61 165.427C150.445 165.197 150.243 164.995 150.004 164.821C149.77 164.647 149.497 164.506 149.184 164.4C148.87 164.293 148.517 164.24 148.125 164.24C147.715 164.24 147.364 164.304 147.074 164.433C146.784 164.562 146.542 164.722 146.348 164.913Z" fill="#1059E3"/>
<path d="M157.699 162.312H166.462V174.688H163.84V164.442H160.159L160.167 166.311C160.173 167.439 160.147 168.435 160.09 169.3C160.039 170.159 159.954 170.908 159.834 171.548C159.72 172.182 159.572 172.715 159.39 173.148C159.214 173.58 159.003 173.928 158.758 174.192C158.513 174.45 158.234 174.635 157.921 174.747C157.608 174.86 157.263 174.916 156.888 174.916C156.58 174.916 156.307 174.896 156.068 174.857C155.834 174.823 155.601 174.759 155.367 174.663L155.359 172.297C155.438 172.337 155.521 172.37 155.606 172.398C155.698 172.421 155.786 172.44 155.871 172.457C155.957 172.468 156.033 172.477 156.102 172.483C156.176 172.488 156.233 172.491 156.273 172.491C156.426 172.491 156.569 172.471 156.7 172.432C156.836 172.387 156.956 172.294 157.058 172.154C157.167 172.014 157.26 171.812 157.34 171.548C157.42 171.284 157.485 170.933 157.537 170.495C157.594 170.058 157.633 169.516 157.656 168.87C157.685 168.225 157.699 167.453 157.699 166.555V162.312Z" fill="#1059E3"/>
<path d="M177.591 169.325H171.433V172.449H178.428V174.688H168.913V162.312H178.129V164.442H171.433V167.187H177.591V169.325Z" fill="#1059E3"/>
<path d="M191.777 174.688H188.455L184.569 169.207L183.288 170.495V174.688H180.665V162.312H183.288V167.347L188.088 162.312H191.478L186.354 167.38L191.777 174.688Z" fill="#1059E3"/>
<path d="M191.999 162.312H202.283V164.442H198.448V174.688H195.826V164.442H191.999V162.312Z" fill="#1059E3"/>
<path d="M211.165 169.948C210.653 170.145 210.072 170.243 209.423 170.243H206.553V174.688H203.931V162.312H209.636C210.302 162.312 210.88 162.401 211.37 162.581C211.865 162.761 212.275 163.022 212.6 163.364C212.925 163.706 213.167 164.122 213.326 164.61C213.485 165.098 213.565 165.654 213.565 166.277C213.565 166.855 213.471 167.389 213.283 167.877C213.095 168.36 212.822 168.778 212.463 169.131C212.11 169.479 211.678 169.752 211.165 169.948ZM206.553 168.104H209.038C209.631 168.104 210.095 167.961 210.431 167.675C210.772 167.389 210.943 166.923 210.943 166.277C210.943 165.952 210.898 165.674 210.806 165.444C210.721 165.214 210.596 165.025 210.431 164.88C210.271 164.728 210.072 164.619 209.833 164.551C209.599 164.478 209.335 164.442 209.038 164.442H206.553V168.104Z" fill="#1059E3"/>
<path d="M218.322 174.503C217.565 174.172 216.936 173.717 216.435 173.139C215.934 172.555 215.558 171.868 215.307 171.076C215.057 170.279 214.932 169.421 214.932 168.5C214.932 167.574 215.057 166.715 215.307 165.924C215.558 165.132 215.934 164.447 216.435 163.869C216.936 163.285 217.565 162.828 218.322 162.497C219.08 162.166 219.962 162 220.97 162C221.898 162 222.735 162.166 223.481 162.497C224.227 162.828 224.859 163.285 225.377 163.869C225.901 164.447 226.302 165.132 226.581 165.924C226.86 166.715 227 167.574 227 168.5C227 169.421 226.86 170.279 226.581 171.076C226.302 171.868 225.901 172.555 225.377 173.139C224.859 173.717 224.227 174.172 223.481 174.503C222.735 174.834 221.898 175 220.97 175C219.962 175 219.08 174.834 218.322 174.503ZM217.554 168.5C217.554 169.117 217.633 169.684 217.793 170.201C217.947 170.723 218.169 171.175 218.459 171.556C218.755 171.932 219.114 172.227 219.535 172.44C219.957 172.654 220.435 172.76 220.97 172.76C221.505 172.76 221.984 172.654 222.405 172.44C222.826 172.227 223.182 171.932 223.473 171.556C223.769 171.175 223.994 170.726 224.147 170.209C224.301 169.687 224.378 169.117 224.378 168.5C224.378 167.883 224.301 167.316 224.147 166.799C223.994 166.277 223.769 165.828 223.473 165.452C223.182 165.07 222.826 164.773 222.405 164.56C221.984 164.346 221.505 164.24 220.97 164.24C220.435 164.24 219.957 164.346 219.535 164.56C219.114 164.773 218.755 165.07 218.459 165.452C218.169 165.828 217.944 166.277 217.784 166.799C217.631 167.316 217.554 167.883 217.554 168.5Z" fill="#1059E3"/>
<path d="M146.348 164.913C146.149 165.104 145.992 165.312 145.878 165.536C145.764 165.755 145.679 165.96 145.622 166.151H143C143.097 165.505 143.288 164.927 143.572 164.416C143.857 163.9 144.227 163.465 144.683 163.111C145.138 162.752 145.673 162.477 146.288 162.286C146.903 162.095 147.586 162 148.338 162C148.976 162 149.559 162.081 150.089 162.244C150.624 162.401 151.105 162.623 151.532 162.909C151.959 163.196 152.332 163.538 152.651 163.937C152.97 164.329 153.235 164.764 153.446 165.242C153.662 165.719 153.824 166.227 153.932 166.766C154.041 167.299 154.095 167.849 154.095 168.416C154.095 169.325 154.001 170.119 153.813 170.799C153.631 171.472 153.386 172.053 153.078 172.541C152.777 173.03 152.426 173.434 152.028 173.754C151.635 174.068 151.225 174.318 150.798 174.503C150.377 174.688 149.955 174.818 149.534 174.891C149.112 174.964 148.725 175 148.372 175C147.604 175 146.915 174.888 146.305 174.663C145.696 174.439 145.167 174.133 144.717 173.745C144.273 173.358 143.908 172.903 143.623 172.381C143.339 171.854 143.137 171.29 143.017 170.689H145.639C145.725 170.942 145.833 171.191 145.964 171.438C146.1 171.685 146.271 171.907 146.476 172.104C146.681 172.3 146.926 172.46 147.211 172.584C147.501 172.701 147.84 172.76 148.227 172.76C148.717 172.755 149.155 172.673 149.542 172.516C149.93 172.359 150.257 172.14 150.525 171.859C150.798 171.573 151.006 171.234 151.148 170.841C151.29 170.448 151.362 170.007 151.362 169.519H147.245V167.481H151.327C151.327 167.285 151.302 167.069 151.251 166.833C151.205 166.597 151.128 166.361 151.02 166.126C150.917 165.884 150.781 165.651 150.61 165.427C150.445 165.197 150.243 164.995 150.004 164.821C149.77 164.647 149.497 164.506 149.184 164.4C148.87 164.293 148.517 164.24 148.125 164.24C147.715 164.24 147.364 164.304 147.074 164.433C146.784 164.562 146.542 164.722 146.348 164.913Z" stroke="#FFFBFB" mask="url(#path-5-outside-1_29_55)"/>
<path d="M157.699 162.312H166.462V174.688H163.84V164.442H160.159L160.167 166.311C160.173 167.439 160.147 168.435 160.09 169.3C160.039 170.159 159.954 170.908 159.834 171.548C159.72 172.182 159.572 172.715 159.39 173.148C159.214 173.58 159.003 173.928 158.758 174.192C158.513 174.45 158.234 174.635 157.921 174.747C157.608 174.86 157.263 174.916 156.888 174.916C156.58 174.916 156.307 174.896 156.068 174.857C155.834 174.823 155.601 174.759 155.367 174.663L155.359 172.297C155.438 172.337 155.521 172.37 155.606 172.398C155.698 172.421 155.786 172.44 155.871 172.457C155.957 172.468 156.033 172.477 156.102 172.483C156.176 172.488 156.233 172.491 156.273 172.491C156.426 172.491 156.569 172.471 156.7 172.432C156.836 172.387 156.956 172.294 157.058 172.154C157.167 172.014 157.26 171.812 157.34 171.548C157.42 171.284 157.485 170.933 157.537 170.495C157.594 170.058 157.633 169.516 157.656 168.87C157.685 168.225 157.699 167.453 157.699 166.555V162.312Z" stroke="#FFFBFB" mask="url(#path-5-outside-1_29_55)"/>
<path d="M177.591 169.325H171.433V172.449H178.428V174.688H168.913V162.312H178.129V164.442H171.433V167.187H177.591V169.325Z" stroke="#FFFBFB" mask="url(#path-5-outside-1_29_55)"/>
<path d="M191.777 174.688H188.455L184.569 169.207L183.288 170.495V174.688H180.665V162.312H183.288V167.347L188.088 162.312H191.478L186.354 167.38L191.777 174.688Z" stroke="#FFFBFB" mask="url(#path-5-outside-1_29_55)"/>
<path d="M191.999 162.312H202.283V164.442H198.448V174.688H195.826V164.442H191.999V162.312Z" stroke="#FFFBFB" mask="url(#path-5-outside-1_29_55)"/>
<path d="M211.165 169.948C210.653 170.145 210.072 170.243 209.423 170.243H206.553V174.688H203.931V162.312H209.636C210.302 162.312 210.88 162.401 211.37 162.581C211.865 162.761 212.275 163.022 212.6 163.364C212.925 163.706 213.167 164.122 213.326 164.61C213.485 165.098 213.565 165.654 213.565 166.277C213.565 166.855 213.471 167.389 213.283 167.877C213.095 168.36 212.822 168.778 212.463 169.131C212.11 169.479 211.678 169.752 211.165 169.948ZM206.553 168.104H209.038C209.631 168.104 210.095 167.961 210.431 167.675C210.772 167.389 210.943 166.923 210.943 166.277C210.943 165.952 210.898 165.674 210.806 165.444C210.721 165.214 210.596 165.025 210.431 164.88C210.271 164.728 210.072 164.619 209.833 164.551C209.599 164.478 209.335 164.442 209.038 164.442H206.553V168.104Z" stroke="#FFFBFB" mask="url(#path-5-outside-1_29_55)"/>
<path d="M218.322 174.503C217.565 174.172 216.936 173.717 216.435 173.139C215.934 172.555 215.558 171.868 215.307 171.076C215.057 170.279 214.932 169.421 214.932 168.5C214.932 167.574 215.057 166.715 215.307 165.924C215.558 165.132 215.934 164.447 216.435 163.869C216.936 163.285 217.565 162.828 218.322 162.497C219.08 162.166 219.962 162 220.97 162C221.898 162 222.735 162.166 223.481 162.497C224.227 162.828 224.859 163.285 225.377 163.869C225.901 164.447 226.302 165.132 226.581 165.924C226.86 166.715 227 167.574 227 168.5C227 169.421 226.86 170.279 226.581 171.076C226.302 171.868 225.901 172.555 225.377 173.139C224.859 173.717 224.227 174.172 223.481 174.503C222.735 174.834 221.898 175 220.97 175C219.962 175 219.08 174.834 218.322 174.503ZM217.554 168.5C217.554 169.117 217.633 169.684 217.793 170.201C217.947 170.723 218.169 171.175 218.459 171.556C218.755 171.932 219.114 172.227 219.535 172.44C219.957 172.654 220.435 172.76 220.97 172.76C221.505 172.76 221.984 172.654 222.405 172.44C222.826 172.227 223.182 171.932 223.473 171.556C223.769 171.175 223.994 170.726 224.147 170.209C224.301 169.687 224.378 169.117 224.378 168.5C224.378 167.883 224.301 167.316 224.147 166.799C223.994 166.277 223.769 165.828 223.473 165.452C223.182 165.07 222.826 164.773 222.405 164.56C221.984 164.346 221.505 164.24 220.97 164.24C220.435 164.24 219.957 164.346 219.535 164.56C219.114 164.773 218.755 165.07 218.459 165.452C218.169 165.828 217.944 166.277 217.784 166.799C217.631 167.316 217.554 167.883 217.554 168.5Z" stroke="#FFFBFB" mask="url(#path-5-outside-1_29_55)"/>
</svg>
