<svg width="249" height="209" viewBox="0 0 249 209" fill="none" xmlns="http://www.w3.org/2000/svg">
<path d="M15 95L98.5 12L26.5 96L96.5 178.5L15 95Z" fill="#88F026" stroke="#FAFCFF" stroke-width="0.5"/>
<path d="M172 96.5L100 12L185.5 96.5V107.5H174L101.5 179L172 96.5Z" fill="#88F026" stroke="#F2F6FC" stroke-width="0.5"/>
<path d="M70.1924 110H63.1797L61.2061 103.638H49.8052L47.6636 110H40.8608L51.9048 79.1357H59.2744L70.1924 110ZM59.4004 98.3052L55.5581 86.0854H55.4741L51.5269 98.3052H59.4004ZM97.8148 104.457C98.7387 104.947 99.7885 105.192 100.964 105.192C102.322 105.192 103.428 104.982 104.282 104.562C105.135 104.142 105.814 103.631 106.318 103.029C106.836 102.427 107.221 101.798 107.473 101.14C107.725 100.482 107.921 99.9079 108.061 99.418H114.465C114.115 101.35 113.534 103.029 112.722 104.457C111.91 105.871 110.923 107.047 109.762 107.984C108.6 108.922 107.291 109.622 105.835 110.084C104.394 110.546 102.854 110.777 101.216 110.777C98.9206 110.777 96.884 110.399 95.1063 109.643C93.3427 108.873 91.852 107.781 90.6342 106.368C89.4304 104.954 88.5136 103.253 87.8837 101.266C87.2538 99.264 86.9389 97.0314 86.9389 94.5679C86.9389 92.6642 87.1208 90.9425 87.4848 89.4028C87.8487 87.8631 88.3526 86.4984 88.9965 85.3086C89.6544 84.1048 90.4242 83.069 91.3061 82.2012C92.1879 81.3193 93.1467 80.5985 94.1825 80.0386C95.2323 79.4647 96.3311 79.0448 97.4789 78.7788C98.6267 78.4989 99.7885 78.3589 100.964 78.3589C102.644 78.3589 104.135 78.5339 105.436 78.8838C106.738 79.2337 107.879 79.7026 108.859 80.2905C109.839 80.8784 110.671 81.5503 111.357 82.3062C112.057 83.062 112.624 83.8459 113.058 84.6577C113.506 85.4556 113.835 86.2604 114.045 87.0723C114.269 87.8701 114.409 88.605 114.465 89.2769H108.019C107.935 88.9829 107.83 88.647 107.704 88.269C107.578 87.8771 107.403 87.4852 107.179 87.0933C106.969 86.7013 106.696 86.3164 106.36 85.9385C106.038 85.5605 105.632 85.2246 105.142 84.9307C104.653 84.6367 104.065 84.3988 103.379 84.2168C102.693 84.0348 101.888 83.9438 100.964 83.9438C100.572 83.9438 100.11 83.9928 99.5785 84.0908C99.0466 84.1888 98.5007 84.3778 97.9408 84.6577C97.3809 84.9237 96.828 85.3016 96.2821 85.7915C95.7362 86.2814 95.2463 86.9253 94.8124 87.7231C94.3925 88.507 94.0495 89.4588 93.7836 90.5786C93.5176 91.6984 93.3847 93.0282 93.3847 94.5679C93.3847 96.2336 93.5596 97.7243 93.9096 99.04C94.2595 100.356 94.7634 101.469 95.4213 102.378C96.0792 103.288 96.877 103.981 97.8148 104.457ZM130.623 79.1357H155.903V84.4478H146.475V110H140.03V84.4478H130.623V79.1357Z" fill="#88F026"/>
<path d="M70.1924 110V110.5H70.8996L70.6638 109.833L70.1924 110ZM63.1797 110L62.7021 110.148L62.8113 110.5H63.1797V110ZM61.2061 103.638L61.6836 103.49L61.5744 103.138H61.2061V103.638ZM49.8052 103.638V103.138H49.4459L49.3313 103.479L49.8052 103.638ZM47.6636 110V110.5H48.0228L48.1374 110.16L47.6636 110ZM40.8608 110L40.3901 109.832L40.1509 110.5H40.8608V110ZM51.9048 79.1357V78.6357H51.5527L51.434 78.9673L51.9048 79.1357ZM59.2744 79.1357L59.7458 78.969L59.6279 78.6357H59.2744V79.1357ZM59.4004 98.3052V98.8052H60.0817L59.8774 98.1552L59.4004 98.3052ZM55.5581 86.0854L56.0351 85.9355L55.925 85.5854H55.5581V86.0854ZM55.4741 86.0854V85.5854H55.1102L54.9983 85.9318L55.4741 86.0854ZM51.5269 98.3052L51.0511 98.1515L50.8399 98.8052H51.5269V98.3052ZM70.1924 109.5H63.1797V110.5H70.1924V109.5ZM63.6572 109.852L61.6836 103.49L60.7285 103.786L62.7021 110.148L63.6572 109.852ZM61.2061 103.138H49.8052V104.138H61.2061V103.138ZM49.3313 103.479L47.1897 109.84L48.1374 110.16L50.279 103.798L49.3313 103.479ZM47.6636 109.5H40.8608V110.5H47.6636V109.5ZM41.3316 110.168L52.3756 79.3042L51.434 78.9673L40.3901 109.832L41.3316 110.168ZM51.9048 79.6357H59.2744V78.6357H51.9048V79.6357ZM58.803 79.3025L69.721 110.167L70.6638 109.833L59.7458 78.969L58.803 79.3025ZM59.8774 98.1552L56.0351 85.9355L55.0811 86.2354L58.9234 98.4552L59.8774 98.1552ZM55.5581 85.5854H55.4741V86.5854H55.5581V85.5854ZM54.9983 85.9318L51.0511 98.1515L52.0026 98.4589L55.9499 86.2391L54.9983 85.9318ZM51.5269 98.8052H59.4004V97.8052H51.5269V98.8052ZM97.8148 104.457L98.0491 104.015L98.0411 104.011L97.8148 104.457ZM106.318 103.029L105.939 102.703L105.935 102.708L106.318 103.029ZM108.061 99.418V98.918H107.684L107.58 99.2806L108.061 99.418ZM114.465 99.418L114.957 99.5071L115.063 98.918H114.465V99.418ZM112.722 104.457L113.156 104.706L113.157 104.704L112.722 104.457ZM109.762 107.984L109.448 107.595L109.762 107.984ZM105.835 110.084L105.684 109.607L105.683 109.608L105.835 110.084ZM95.1063 109.643L94.9063 110.101L94.9107 110.103L95.1063 109.643ZM90.6342 106.368L90.2535 106.692L90.2553 106.694L90.6342 106.368ZM87.8837 101.266L87.4067 101.416L87.4071 101.417L87.8837 101.266ZM87.4848 89.4028L86.9982 89.2878L87.4848 89.4028ZM88.9965 85.3086L88.5577 85.0688L88.5567 85.0706L88.9965 85.3086ZM91.3061 82.2012L91.6568 82.5576L91.6596 82.5547L91.3061 82.2012ZM94.1825 80.0386L94.4203 80.4784L94.4224 80.4773L94.1825 80.0386ZM97.4789 78.7788L97.5918 79.2659L97.5974 79.2646L97.4789 78.7788ZM111.357 82.3062L110.987 82.6422L110.99 82.6459L111.357 82.3062ZM113.058 84.6577L112.617 84.8935L112.622 84.9025L113.058 84.6577ZM114.045 87.0723L113.561 87.1975L113.563 87.2074L114.045 87.0723ZM114.465 89.2769V89.7769H115.008L114.963 89.2353L114.465 89.2769ZM108.019 89.2769L107.538 89.4142L107.642 89.7769H108.019V89.2769ZM107.704 88.269L107.228 88.4221L107.23 88.4272L107.704 88.269ZM107.179 87.0933L106.738 87.3295L106.745 87.3413L107.179 87.0933ZM106.36 85.9385L105.98 86.2628L105.987 86.2707L106.36 85.9385ZM97.9408 84.6577L98.1554 85.1094L98.1644 85.1049L97.9408 84.6577ZM94.8124 87.7231L94.3732 87.4843L94.3717 87.487L94.8124 87.7231ZM95.4213 102.378L95.0161 102.671L95.4213 102.378ZM97.5806 104.899C98.5852 105.431 99.7171 105.692 100.964 105.692V104.692C99.8598 104.692 98.8922 104.462 98.0491 104.015L97.5806 104.899ZM100.964 105.692C102.368 105.692 103.557 105.476 104.502 105.011L104.061 104.113C103.299 104.488 102.276 104.692 100.964 104.692V105.692ZM104.502 105.011C105.406 104.566 106.145 104.016 106.702 103.35L105.935 102.708C105.484 103.247 104.865 103.718 104.061 104.113L104.502 105.011ZM106.697 103.355C107.248 102.715 107.665 102.037 107.94 101.318L107.006 100.961C106.777 101.559 106.424 102.139 105.939 102.703L106.697 103.355ZM107.94 101.318C108.195 100.652 108.397 100.063 108.542 99.5553L107.58 99.2806C107.445 99.7524 107.255 100.312 107.006 100.961L107.94 101.318ZM108.061 99.918H114.465V98.918H108.061V99.918ZM113.973 99.3288C113.631 101.215 113.067 102.84 112.287 104.21L113.157 104.704C114.001 103.219 114.599 101.484 114.957 99.5071L113.973 99.3288ZM112.288 104.208C111.505 105.573 110.557 106.7 109.448 107.595L110.076 108.373C111.29 107.393 112.316 106.169 113.156 104.706L112.288 104.208ZM109.448 107.595C108.335 108.493 107.082 109.164 105.684 109.607L105.987 110.561C107.5 110.08 108.864 109.351 110.076 108.373L109.448 107.595ZM105.683 109.608C104.294 110.053 102.806 110.277 101.216 110.277V111.277C102.901 111.277 104.493 111.039 105.988 110.56L105.683 109.608ZM101.216 110.277C98.9754 110.277 97.0073 109.908 95.302 109.183L94.9107 110.103C96.7607 110.89 98.8658 111.277 101.216 111.277V110.277ZM95.3064 109.185C93.6092 108.444 92.1803 107.396 91.013 106.041L90.2553 106.694C91.5236 108.166 93.0761 109.302 94.9063 110.101L95.3064 109.185ZM91.0149 106.044C89.8593 104.686 88.9726 103.046 88.3603 101.115L87.4071 101.417C88.0546 103.46 89.0015 105.221 90.2535 106.692L91.0149 106.044ZM88.3606 101.116C87.7484 99.1701 87.4389 96.9891 87.4389 94.5679H86.4389C86.4389 97.0737 86.7592 99.3579 87.4067 101.416L88.3606 101.116ZM87.4389 94.5679C87.4389 92.6954 87.6179 91.0132 87.9714 89.5178L86.9982 89.2878C86.6237 90.8719 86.4389 92.633 86.4389 94.5679H87.4389ZM87.9714 89.5178C88.3268 88.014 88.8165 86.6917 89.4362 85.5466L88.5567 85.0706C87.8887 86.305 87.3706 87.7123 86.9982 89.2878L87.9714 89.5178ZM89.4352 85.5484C90.0722 84.3829 90.8134 83.3875 91.6568 82.5575L90.9553 81.8448C90.035 82.7505 89.2366 83.8267 88.5577 85.0688L89.4352 85.5484ZM91.6596 82.5547C92.5093 81.7051 93.4295 81.014 94.4203 80.4784L93.9448 79.5987C92.8639 80.183 91.8665 80.9336 90.9525 81.8476L91.6596 82.5547ZM94.4224 80.4773C95.4329 79.9249 96.489 79.5214 97.5918 79.2659L97.366 78.2917C96.1732 78.5681 95.0318 79.0045 93.9427 79.5999L94.4224 80.4773ZM97.5974 79.2646C98.7066 78.994 99.8286 78.8589 100.964 78.8589V77.8589C99.7484 77.8589 98.5468 78.0037 97.3604 78.293L97.5974 79.2646ZM100.964 78.8589C102.61 78.8589 104.056 79.0305 105.307 79.3666L105.566 78.4009C104.213 78.0372 102.678 77.8589 100.964 77.8589V78.8589ZM105.307 79.3666C106.571 79.7066 107.668 80.1591 108.602 80.7193L109.116 79.8618C108.09 79.2462 106.905 78.7608 105.566 78.4009L105.307 79.3666ZM108.602 80.7193C109.544 81.2849 110.338 81.9266 110.987 82.6421L111.728 81.9702C111.005 81.174 110.133 80.4719 109.116 79.8618L108.602 80.7193ZM110.99 82.6459C111.665 83.374 112.205 84.1234 112.617 84.8934L113.499 84.422C113.043 83.5683 112.45 82.75 111.724 81.9664L110.99 82.6459ZM112.622 84.9025C113.051 85.6661 113.363 86.431 113.561 87.1975L114.529 86.9471C114.307 86.0899 113.961 85.245 113.494 84.4129L112.622 84.9025ZM113.563 87.2074C113.781 87.9813 113.914 88.6844 113.966 89.3184L114.963 89.2353C114.904 88.5256 114.757 87.7589 114.526 86.9371L113.563 87.2074ZM114.465 88.7769H108.019V89.7769H114.465V88.7769ZM108.5 89.1395C108.413 88.8369 108.306 88.4938 108.178 88.1109L107.23 88.4272C107.354 88.8001 107.457 89.1289 107.538 89.4142L108.5 89.1395ZM108.18 88.116C108.042 87.6881 107.853 87.2644 107.613 86.8452L106.745 87.3413C106.953 87.706 107.114 88.0662 107.228 88.422L108.18 88.116ZM107.62 86.8572C107.389 86.4263 107.092 86.0096 106.734 85.6063L105.987 86.2707C106.3 86.6232 106.549 86.9763 106.738 87.3294L107.62 86.8572ZM106.741 85.6142C106.379 85.1893 105.929 84.8196 105.4 84.5019L104.885 85.3594C105.336 85.6296 105.698 85.9318 105.98 86.2627L106.741 85.6142ZM105.4 84.5019C104.861 84.1788 104.228 83.9247 103.507 83.7335L103.251 84.7001C103.902 84.8728 104.444 85.0946 104.885 85.3594L105.4 84.5019ZM103.507 83.7335C102.769 83.5377 101.919 83.4438 100.964 83.4438V84.4438C101.857 84.4438 102.617 84.532 103.251 84.7001L103.507 83.7335ZM100.964 83.4438C100.533 83.4438 100.039 83.4975 99.4879 83.5991L99.6691 84.5825C100.181 84.4882 100.612 84.4438 100.964 84.4438V83.4438ZM99.4879 83.5991C98.9032 83.7068 98.3127 83.9128 97.7172 84.2105L98.1644 85.1049C98.6887 84.8428 99.19 84.6708 99.6691 84.5825L99.4879 83.5991ZM97.7263 84.2061C97.1159 84.496 96.5235 84.9031 95.9482 85.4194L96.6161 86.1636C97.1326 85.7001 97.646 85.3513 98.1553 85.1094L97.7263 84.2061ZM95.9482 85.4194C95.3511 85.9552 94.8281 86.6478 94.3732 87.4843L95.2516 87.962C95.6646 87.2028 96.1214 86.6076 96.6161 86.1636L95.9482 85.4194ZM94.3717 87.487C93.9264 88.3182 93.5703 89.3129 93.2971 90.4631L94.2701 90.6941C94.5288 89.6047 94.8586 88.6958 95.2531 87.9593L94.3717 87.487ZM93.2971 90.4631C93.0197 91.631 92.8847 93.0014 92.8847 94.5679H93.8847C93.8847 93.0549 94.0155 91.7658 94.2701 90.6941L93.2971 90.4631ZM92.8847 94.5679C92.8847 96.2677 93.0631 97.8028 93.4264 99.1686L94.3928 98.9115C94.0561 97.6458 93.8847 96.1995 93.8847 94.5679H92.8847ZM93.4264 99.1686C93.7888 100.531 94.3157 101.703 95.0161 102.671L95.8265 102.085C95.2112 101.235 94.7302 100.18 94.3928 98.9115L93.4264 99.1686ZM95.0161 102.671C95.7174 103.641 96.575 104.389 97.5886 104.903L98.0411 104.011C97.179 103.574 96.441 102.935 95.8265 102.085L95.0161 102.671ZM130.623 79.1357V78.6357H130.123V79.1357H130.623ZM155.903 79.1357H156.403V78.6357H155.903V79.1357ZM155.903 84.4478V84.9478H156.403V84.4478H155.903ZM146.475 84.4478V83.9478H145.975V84.4478H146.475ZM146.475 110V110.5H146.975V110H146.475ZM140.03 110H139.53V110.5H140.03V110ZM140.03 84.4478H140.53V83.9478H140.03V84.4478ZM130.623 84.4478H130.123V84.9478H130.623V84.4478ZM130.623 79.6357H155.903V78.6357H130.623V79.6357ZM155.403 79.1357V84.4478H156.403V79.1357H155.403ZM155.903 83.9478H146.475V84.9478H155.903V83.9478ZM145.975 84.4478V110H146.975V84.4478H145.975ZM146.475 109.5H140.03V110.5H146.475V109.5ZM140.53 110V84.4478H139.53V110H140.53ZM140.03 83.9478H130.623V84.9478H140.03V83.9478ZM131.123 84.4478V79.1357H130.123V84.4478H131.123Z" fill="#FFFBFB"/>
<mask id="path-5-outside-1_29_63" maskUnits="userSpaceOnUse" x="151" y="165" width="86" height="15" fill="black">
<rect fill="white" x="151" y="165" width="86" height="15"/>
<path d="M155.348 168.913C155.149 169.104 154.992 169.312 154.878 169.536C154.764 169.755 154.679 169.96 154.622 170.151H152C152.097 169.505 152.288 168.927 152.572 168.416C152.857 167.9 153.227 167.465 153.683 167.111C154.138 166.752 154.673 166.477 155.288 166.286C155.903 166.095 156.586 166 157.338 166C157.976 166 158.559 166.081 159.089 166.244C159.624 166.401 160.105 166.623 160.532 166.909C160.959 167.196 161.332 167.538 161.651 167.937C161.97 168.329 162.235 168.764 162.446 169.242C162.662 169.719 162.824 170.227 162.932 170.766C163.041 171.299 163.095 171.849 163.095 172.416C163.095 173.325 163.001 174.119 162.813 174.799C162.631 175.472 162.386 176.053 162.078 176.541C161.777 177.03 161.426 177.434 161.028 177.754C160.635 178.068 160.225 178.318 159.798 178.503C159.377 178.688 158.955 178.818 158.534 178.891C158.112 178.964 157.725 179 157.372 179C156.604 179 155.915 178.888 155.305 178.663C154.696 178.439 154.167 178.133 153.717 177.745C153.273 177.358 152.908 176.903 152.623 176.381C152.339 175.854 152.137 175.29 152.017 174.689H154.639C154.725 174.942 154.833 175.191 154.964 175.438C155.1 175.685 155.271 175.907 155.476 176.104C155.681 176.3 155.926 176.46 156.211 176.584C156.501 176.701 156.84 176.76 157.227 176.76C157.717 176.755 158.155 176.673 158.542 176.516C158.93 176.359 159.257 176.14 159.525 175.859C159.798 175.573 160.006 175.234 160.148 174.841C160.29 174.448 160.362 174.007 160.362 173.519H156.245V171.481H160.327C160.327 171.285 160.302 171.069 160.251 170.833C160.205 170.597 160.128 170.361 160.02 170.126C159.917 169.884 159.781 169.651 159.61 169.427C159.445 169.197 159.243 168.995 159.004 168.821C158.77 168.647 158.497 168.506 158.184 168.4C157.87 168.293 157.517 168.24 157.125 168.24C156.715 168.24 156.364 168.304 156.074 168.433C155.784 168.562 155.542 168.722 155.348 168.913Z"/>
<path d="M166.699 166.312H175.462V178.688H172.84V168.442H169.159L169.167 170.311C169.173 171.439 169.147 172.435 169.09 173.3C169.039 174.159 168.954 174.908 168.834 175.548C168.72 176.182 168.572 176.715 168.39 177.148C168.214 177.58 168.003 177.928 167.758 178.192C167.513 178.45 167.234 178.635 166.921 178.747C166.608 178.86 166.263 178.916 165.888 178.916C165.58 178.916 165.307 178.896 165.068 178.857C164.834 178.823 164.601 178.759 164.367 178.663L164.359 176.297C164.438 176.337 164.521 176.37 164.606 176.398C164.698 176.421 164.786 176.44 164.871 176.457C164.957 176.468 165.033 176.477 165.102 176.483C165.176 176.488 165.233 176.491 165.273 176.491C165.426 176.491 165.569 176.471 165.7 176.432C165.836 176.387 165.956 176.294 166.058 176.154C166.167 176.014 166.26 175.812 166.34 175.548C166.42 175.284 166.485 174.933 166.537 174.495C166.594 174.058 166.633 173.516 166.656 172.87C166.685 172.225 166.699 171.453 166.699 170.555V166.312Z"/>
<path d="M186.591 173.325H180.433V176.449H187.428V178.688H177.913V166.312H187.129V168.442H180.433V171.187H186.591V173.325Z"/>
<path d="M200.777 178.688H197.455L193.569 173.207L192.288 174.495V178.688H189.665V166.312H192.288V171.347L197.088 166.312H200.478L195.354 171.38L200.777 178.688Z"/>
<path d="M200.999 166.312H211.283V168.442H207.448V178.688H204.826V168.442H200.999V166.312Z"/>
<path d="M220.165 173.948C219.653 174.145 219.072 174.243 218.423 174.243H215.553V178.688H212.931V166.312H218.636C219.302 166.312 219.88 166.401 220.37 166.581C220.865 166.761 221.275 167.022 221.6 167.364C221.925 167.706 222.167 168.122 222.326 168.61C222.485 169.098 222.565 169.654 222.565 170.277C222.565 170.855 222.471 171.389 222.283 171.877C222.095 172.36 221.822 172.778 221.463 173.131C221.11 173.479 220.678 173.752 220.165 173.948ZM215.553 172.104H218.038C218.631 172.104 219.095 171.961 219.431 171.675C219.772 171.389 219.943 170.923 219.943 170.277C219.943 169.952 219.898 169.674 219.806 169.444C219.721 169.214 219.596 169.025 219.431 168.88C219.271 168.728 219.072 168.619 218.833 168.551C218.599 168.478 218.335 168.442 218.038 168.442H215.553V172.104Z"/>
<path d="M227.322 178.503C226.565 178.172 225.936 177.717 225.435 177.139C224.934 176.555 224.558 175.868 224.307 175.076C224.057 174.279 223.932 173.421 223.932 172.5C223.932 171.574 224.057 170.715 224.307 169.924C224.558 169.132 224.934 168.447 225.435 167.869C225.936 167.285 226.565 166.828 227.322 166.497C228.08 166.166 228.962 166 229.97 166C230.898 166 231.735 166.166 232.481 166.497C233.227 166.828 233.859 167.285 234.377 167.869C234.901 168.447 235.302 169.132 235.581 169.924C235.86 170.715 236 171.574 236 172.5C236 173.421 235.86 174.279 235.581 175.076C235.302 175.868 234.901 176.555 234.377 177.139C233.859 177.717 233.227 178.172 232.481 178.503C231.735 178.834 230.898 179 229.97 179C228.962 179 228.08 178.834 227.322 178.503ZM226.554 172.5C226.554 173.117 226.633 173.684 226.793 174.201C226.947 174.723 227.169 175.175 227.459 175.556C227.755 175.932 228.114 176.227 228.535 176.44C228.957 176.654 229.435 176.76 229.97 176.76C230.505 176.76 230.984 176.654 231.405 176.44C231.826 176.227 232.182 175.932 232.473 175.556C232.769 175.175 232.994 174.726 233.147 174.209C233.301 173.687 233.378 173.117 233.378 172.5C233.378 171.883 233.301 171.316 233.147 170.799C232.994 170.277 232.769 169.828 232.473 169.452C232.182 169.07 231.826 168.773 231.405 168.56C230.984 168.346 230.505 168.24 229.97 168.24C229.435 168.24 228.957 168.346 228.535 168.56C228.114 168.773 227.755 169.07 227.459 169.452C227.169 169.828 226.944 170.277 226.784 170.799C226.631 171.316 226.554 171.883 226.554 172.5Z"/>
</mask>
<path d="M155.348 168.913C155.149 169.104 154.992 169.312 154.878 169.536C154.764 169.755 154.679 169.96 154.622 170.151H152C152.097 169.505 152.288 168.927 152.572 168.416C152.857 167.9 153.227 167.465 153.683 167.111C154.138 166.752 154.673 166.477 155.288 166.286C155.903 166.095 156.586 166 157.338 166C157.976 166 158.559 166.081 159.089 166.244C159.624 166.401 160.105 166.623 160.532 166.909C160.959 167.196 161.332 167.538 161.651 167.937C161.97 168.329 162.235 168.764 162.446 169.242C162.662 169.719 162.824 170.227 162.932 170.766C163.041 171.299 163.095 171.849 163.095 172.416C163.095 173.325 163.001 174.119 162.813 174.799C162.631 175.472 162.386 176.053 162.078 176.541C161.777 177.03 161.426 177.434 161.028 177.754C160.635 178.068 160.225 178.318 159.798 178.503C159.377 178.688 158.955 178.818 158.534 178.891C158.112 178.964 157.725 179 157.372 179C156.604 179 155.915 178.888 155.305 178.663C154.696 178.439 154.167 178.133 153.717 177.745C153.273 177.358 152.908 176.903 152.623 176.381C152.339 175.854 152.137 175.29 152.017 174.689H154.639C154.725 174.942 154.833 175.191 154.964 175.438C155.1 175.685 155.271 175.907 155.476 176.104C155.681 176.3 155.926 176.46 156.211 176.584C156.501 176.701 156.84 176.76 157.227 176.76C157.717 176.755 158.155 176.673 158.542 176.516C158.93 176.359 159.257 176.14 159.525 175.859C159.798 175.573 160.006 175.234 160.148 174.841C160.29 174.448 160.362 174.007 160.362 173.519H156.245V171.481H160.327C160.327 171.285 160.302 171.069 160.251 170.833C160.205 170.597 160.128 170.361 160.02 170.126C159.917 169.884 159.781 169.651 159.61 169.427C159.445 169.197 159.243 168.995 159.004 168.821C158.77 168.647 158.497 168.506 158.184 168.4C157.87 168.293 157.517 168.24 157.125 168.24C156.715 168.24 156.364 168.304 156.074 168.433C155.784 168.562 155.542 168.722 155.348 168.913Z" fill="#88F026"/>
<path d="M166.699 166.312H175.462V178.688H172.84V168.442H169.159L169.167 170.311C169.173 171.439 169.147 172.435 169.09 173.3C169.039 174.159 168.954 174.908 168.834 175.548C168.72 176.182 168.572 176.715 168.39 177.148C168.214 177.58 168.003 177.928 167.758 178.192C167.513 178.45 167.234 178.635 166.921 178.747C166.608 178.86 166.263 178.916 165.888 178.916C165.58 178.916 165.307 178.896 165.068 178.857C164.834 178.823 164.601 178.759 164.367 178.663L164.359 176.297C164.438 176.337 164.521 176.37 164.606 176.398C164.698 176.421 164.786 176.44 164.871 176.457C164.957 176.468 165.033 176.477 165.102 176.483C165.176 176.488 165.233 176.491 165.273 176.491C165.426 176.491 165.569 176.471 165.7 176.432C165.836 176.387 165.956 176.294 166.058 176.154C166.167 176.014 166.26 175.812 166.34 175.548C166.42 175.284 166.485 174.933 166.537 174.495C166.594 174.058 166.633 173.516 166.656 172.87C166.685 172.225 166.699 171.453 166.699 170.555V166.312Z" fill="#88F026"/>
<path d="M186.591 173.325H180.433V176.449H187.428V178.688H177.913V166.312H187.129V168.442H180.433V171.187H186.591V173.325Z" fill="#88F026"/>
<path d="M200.777 178.688H197.455L193.569 173.207L192.288 174.495V178.688H189.665V166.312H192.288V171.347L197.088 166.312H200.478L195.354 171.38L200.777 178.688Z" fill="#88F026"/>
<path d="M200.999 166.312H211.283V168.442H207.448V178.688H204.826V168.442H200.999V166.312Z" fill="#88F026"/>
<path d="M220.165 173.948C219.653 174.145 219.072 174.243 218.423 174.243H215.553V178.688H212.931V166.312H218.636C219.302 166.312 219.88 166.401 220.37 166.581C220.865 166.761 221.275 167.022 221.6 167.364C221.925 167.706 222.167 168.122 222.326 168.61C222.485 169.098 222.565 169.654 222.565 170.277C222.565 170.855 222.471 171.389 222.283 171.877C222.095 172.36 221.822 172.778 221.463 173.131C221.11 173.479 220.678 173.752 220.165 173.948ZM215.553 172.104H218.038C218.631 172.104 219.095 171.961 219.431 171.675C219.772 171.389 219.943 170.923 219.943 170.277C219.943 169.952 219.898 169.674 219.806 169.444C219.721 169.214 219.596 169.025 219.431 168.88C219.271 168.728 219.072 168.619 218.833 168.551C218.599 168.478 218.335 168.442 218.038 168.442H215.553V172.104Z" fill="#88F026"/>
<path d="M227.322 178.503C226.565 178.172 225.936 177.717 225.435 177.139C224.934 176.555 224.558 175.868 224.307 175.076C224.057 174.279 223.932 173.421 223.932 172.5C223.932 171.574 224.057 170.715 224.307 169.924C224.558 169.132 224.934 168.447 225.435 167.869C225.936 167.285 226.565 166.828 227.322 166.497C228.08 166.166 228.962 166 229.97 166C230.898 166 231.735 166.166 232.481 166.497C233.227 166.828 233.859 167.285 234.377 167.869C234.901 168.447 235.302 169.132 235.581 169.924C235.86 170.715 236 171.574 236 172.5C236 173.421 235.86 174.279 235.581 175.076C235.302 175.868 234.901 176.555 234.377 177.139C233.859 177.717 233.227 178.172 232.481 178.503C231.735 178.834 230.898 179 229.97 179C228.962 179 228.08 178.834 227.322 178.503ZM226.554 172.5C226.554 173.117 226.633 173.684 226.793 174.201C226.947 174.723 227.169 175.175 227.459 175.556C227.755 175.932 228.114 176.227 228.535 176.44C228.957 176.654 229.435 176.76 229.97 176.76C230.505 176.76 230.984 176.654 231.405 176.44C231.826 176.227 232.182 175.932 232.473 175.556C232.769 175.175 232.994 174.726 233.147 174.209C233.301 173.687 233.378 173.117 233.378 172.5C233.378 171.883 233.301 171.316 233.147 170.799C232.994 170.277 232.769 169.828 232.473 169.452C232.182 169.07 231.826 168.773 231.405 168.56C230.984 168.346 230.505 168.24 229.97 168.24C229.435 168.24 228.957 168.346 228.535 168.56C228.114 168.773 227.755 169.07 227.459 169.452C227.169 169.828 226.944 170.277 226.784 170.799C226.631 171.316 226.554 171.883 226.554 172.5Z" fill="#88F026"/>
<path d="M155.348 168.913C155.149 169.104 154.992 169.312 154.878 169.536C154.764 169.755 154.679 169.96 154.622 170.151H152C152.097 169.505 152.288 168.927 152.572 168.416C152.857 167.9 153.227 167.465 153.683 167.111C154.138 166.752 154.673 166.477 155.288 166.286C155.903 166.095 156.586 166 157.338 166C157.976 166 158.559 166.081 159.089 166.244C159.624 166.401 160.105 166.623 160.532 166.909C160.959 167.196 161.332 167.538 161.651 167.937C161.97 168.329 162.235 168.764 162.446 169.242C162.662 169.719 162.824 170.227 162.932 170.766C163.041 171.299 163.095 171.849 163.095 172.416C163.095 173.325 163.001 174.119 162.813 174.799C162.631 175.472 162.386 176.053 162.078 176.541C161.777 177.03 161.426 177.434 161.028 177.754C160.635 178.068 160.225 178.318 159.798 178.503C159.377 178.688 158.955 178.818 158.534 178.891C158.112 178.964 157.725 179 157.372 179C156.604 179 155.915 178.888 155.305 178.663C154.696 178.439 154.167 178.133 153.717 177.745C153.273 177.358 152.908 176.903 152.623 176.381C152.339 175.854 152.137 175.29 152.017 174.689H154.639C154.725 174.942 154.833 175.191 154.964 175.438C155.1 175.685 155.271 175.907 155.476 176.104C155.681 176.3 155.926 176.46 156.211 176.584C156.501 176.701 156.84 176.76 157.227 176.76C157.717 176.755 158.155 176.673 158.542 176.516C158.93 176.359 159.257 176.14 159.525 175.859C159.798 175.573 160.006 175.234 160.148 174.841C160.29 174.448 160.362 174.007 160.362 173.519H156.245V171.481H160.327C160.327 171.285 160.302 171.069 160.251 170.833C160.205 170.597 160.128 170.361 160.02 170.126C159.917 169.884 159.781 169.651 159.61 169.427C159.445 169.197 159.243 168.995 159.004 168.821C158.77 168.647 158.497 168.506 158.184 168.4C157.87 168.293 157.517 168.24 157.125 168.24C156.715 168.24 156.364 168.304 156.074 168.433C155.784 168.562 155.542 168.722 155.348 168.913Z" stroke="#FFFBFB" mask="url(#path-5-outside-1_29_63)"/>
<path d="M166.699 166.312H175.462V178.688H172.84V168.442H169.159L169.167 170.311C169.173 171.439 169.147 172.435 169.09 173.3C169.039 174.159 168.954 174.908 168.834 175.548C168.72 176.182 168.572 176.715 168.39 177.148C168.214 177.58 168.003 177.928 167.758 178.192C167.513 178.45 167.234 178.635 166.921 178.747C166.608 178.86 166.263 178.916 165.888 178.916C165.58 178.916 165.307 178.896 165.068 178.857C164.834 178.823 164.601 178.759 164.367 178.663L164.359 176.297C164.438 176.337 164.521 176.37 164.606 176.398C164.698 176.421 164.786 176.44 164.871 176.457C164.957 176.468 165.033 176.477 165.102 176.483C165.176 176.488 165.233 176.491 165.273 176.491C165.426 176.491 165.569 176.471 165.7 176.432C165.836 176.387 165.956 176.294 166.058 176.154C166.167 176.014 166.26 175.812 166.34 175.548C166.42 175.284 166.485 174.933 166.537 174.495C166.594 174.058 166.633 173.516 166.656 172.87C166.685 172.225 166.699 171.453 166.699 170.555V166.312Z" stroke="#FFFBFB" mask="url(#path-5-outside-1_29_63)"/>
<path d="M186.591 173.325H180.433V176.449H187.428V178.688H177.913V166.312H187.129V168.442H180.433V171.187H186.591V173.325Z" stroke="#FFFBFB" mask="url(#path-5-outside-1_29_63)"/>
<path d="M200.777 178.688H197.455L193.569 173.207L192.288 174.495V178.688H189.665V166.312H192.288V171.347L197.088 166.312H200.478L195.354 171.38L200.777 178.688Z" stroke="#FFFBFB" mask="url(#path-5-outside-1_29_63)"/>
<path d="M200.999 166.312H211.283V168.442H207.448V178.688H204.826V168.442H200.999V166.312Z" stroke="#FFFBFB" mask="url(#path-5-outside-1_29_63)"/>
<path d="M220.165 173.948C219.653 174.145 219.072 174.243 218.423 174.243H215.553V178.688H212.931V166.312H218.636C219.302 166.312 219.88 166.401 220.37 166.581C220.865 166.761 221.275 167.022 221.6 167.364C221.925 167.706 222.167 168.122 222.326 168.61C222.485 169.098 222.565 169.654 222.565 170.277C222.565 170.855 222.471 171.389 222.283 171.877C222.095 172.36 221.822 172.778 221.463 173.131C221.11 173.479 220.678 173.752 220.165 173.948ZM215.553 172.104H218.038C218.631 172.104 219.095 171.961 219.431 171.675C219.772 171.389 219.943 170.923 219.943 170.277C219.943 169.952 219.898 169.674 219.806 169.444C219.721 169.214 219.596 169.025 219.431 168.88C219.271 168.728 219.072 168.619 218.833 168.551C218.599 168.478 218.335 168.442 218.038 168.442H215.553V172.104Z" stroke="#FFFBFB" mask="url(#path-5-outside-1_29_63)"/>
<path d="M227.322 178.503C226.565 178.172 225.936 177.717 225.435 177.139C224.934 176.555 224.558 175.868 224.307 175.076C224.057 174.279 223.932 173.421 223.932 172.5C223.932 171.574 224.057 170.715 224.307 169.924C224.558 169.132 224.934 168.447 225.435 167.869C225.936 167.285 226.565 166.828 227.322 166.497C228.08 166.166 228.962 166 229.97 166C230.898 166 231.735 166.166 232.481 166.497C233.227 166.828 233.859 167.285 234.377 167.869C234.901 168.447 235.302 169.132 235.581 169.924C235.86 170.715 236 171.574 236 172.5C236 173.421 235.86 174.279 235.581 175.076C235.302 175.868 234.901 176.555 234.377 177.139C233.859 177.717 233.227 178.172 232.481 178.503C231.735 178.834 230.898 179 229.97 179C228.962 179 228.08 178.834 227.322 178.503ZM226.554 172.5C226.554 173.117 226.633 173.684 226.793 174.201C226.947 174.723 227.169 175.175 227.459 175.556C227.755 175.932 228.114 176.227 228.535 176.44C228.957 176.654 229.435 176.76 229.97 176.76C230.505 176.76 230.984 176.654 231.405 176.44C231.826 176.227 232.182 175.932 232.473 175.556C232.769 175.175 232.994 174.726 233.147 174.209C233.301 173.687 233.378 173.117 233.378 172.5C233.378 171.883 233.301 171.316 233.147 170.799C232.994 170.277 232.769 169.828 232.473 169.452C232.182 169.07 231.826 168.773 231.405 168.56C230.984 168.346 230.505 168.24 229.97 168.24C229.435 168.24 228.957 168.346 228.535 168.56C228.114 168.773 227.755 169.07 227.459 169.452C227.169 169.828 226.944 170.277 226.784 170.799C226.631 171.316 226.554 171.883 226.554 172.5Z" stroke="#FFFBFB" mask="url(#path-5-outside-1_29_63)"/>
</svg>
