<svg xmlns="http://www.w3.org/2000/svg" version="1.1" xmlns:xlink="http://www.w3.org/1999/xlink" width="512" height="512" x="0" y="0" viewBox="0 0 512 512" style="enable-background:new 0 0 512 512" xml:space="preserve"><g><path d="M21 10h420v55H21zM359 129H103c-17.673 0-32-14.327-32-32v0c0-17.673 14.327-32 32-32h256c17.673 0 32 14.327 32 32v0c0 17.673-14.327 32-32 32zM366 179H96c-13.807 0-25-11.193-25-25v0c0-13.807 11.193-25 25-25h270c13.807 0 25 11.193 25 25v0c0 13.807-11.193 25-25 25zM366 229H96c-13.807 0-25-11.193-25-25v0c0-13.807 11.193-25 25-25h270c13.807 0 25 11.193 25 25v0c0 13.807-11.193 25-25 25zM366 279H96c-13.807 0-25-11.193-25-25v0c0-13.807 11.193-25 25-25h270c13.807 0 25 11.193 25 25v0c0 13.807-11.193 25-25 25zM357 447H105c-18.778 0-34-15.222-34-34v0c0-18.778 15.222-34 34-34h252c18.778 0 34 15.222 34 34v0c0 18.778-15.222 34-34 34zM366.314 282.159 100.68 329H96c-13.807 0-25-11.193-25-25v0c0-13.807 11.193-25 25-25h270.037c1.945 0 2.192 2.822.277 3.159zM441 354h0c0 13.807-11.193 25-25 25H105l283.6-50H416c13.807 0 25 11.193 25 25z" style="stroke-width:20;stroke-linecap:round;stroke-linejoin:round;stroke-miterlimit:10;" fill="none" stroke="#0043bf" stroke-width="20" stroke-linecap="round" stroke-linejoin="round" stroke-miterlimit="10" data-original="#000000" opacity="1"></path><path d="M368.29 332.581 105 379c-19.75 0-29.172-6.214-31.569-19.812h0c-2.398-13.597 6.682-26.564 20.279-28.961l265.898-46.886c13.597-2.398 26.563 6.681 28.961 20.279h0c2.398 13.597-6.682 26.564-20.279 28.961zM185.75 502H21v-55h420v55H276M231 502h0M436.767 340.079S454.5 325.413 491 330M432.022 373.189S472.5 372.5 491 388" style="stroke-width:20;stroke-linecap:round;stroke-linejoin:round;stroke-miterlimit:10;" fill="none" stroke="#0043bf" stroke-width="20" stroke-linecap="round" stroke-linejoin="round" stroke-miterlimit="10" data-original="#000000" opacity="1"></path></g></svg>