<svg xmlns="http://www.w3.org/2000/svg" version="1.1" xmlns:xlink="http://www.w3.org/1999/xlink" width="512" height="512" x="0" y="0" viewBox="0 0 32 32" style="enable-background:new 0 0 512 512" xml:space="preserve" class=""><g><path d="M8.5 6a.5.5 0 0 1-.5-.5v-4a.5.5 0 0 1 .5-.5h16a.5.5 0 0 1 0 1H9v3.5a.5.5 0 0 1-.5.5z" fill="#0043bf" data-original="#000000" opacity="1" class=""></path><path d="M30.479 8H24.5a.5.5 0 0 1-.5-.5V4a.5.5 0 0 1 1 0v3h4.274l-5.129-5.147a.5.5 0 0 1 .709-.705l5.979 6a.5.5 0 0 1-.354.852z" fill="#0043bf" data-original="#000000" opacity="1" class=""></path><path d="M30.5 31h-14a.5.5 0 0 1 0-1H30V7.5a.5.5 0 0 1 1 0v23a.5.5 0 0 1-.5.5zM8.5 7A4.505 4.505 0 0 0 4 11.5c0 1.006.327 1.957.952 2.758.864 1.105 2.048 2.62 2.048 4.1v.142a.5.5 0 0 0 1 0v-.142c0-1.825-1.306-3.496-2.266-4.725A3.433 3.433 0 0 1 5 11.5C5 9.57 6.57 8 8.5 8S12 9.57 12 11.5c0 .781-.254 1.519-.74 2.142-.954 1.22-2.26 2.891-2.26 4.716V20.5h.5c.187 0 .351.064.5.153v-2.295c0-1.48 1.184-2.995 2.055-4.109A4.43 4.43 0 0 0 13 11.5C13 9.019 10.981 7 8.5 7zM15.5 29h-14a.5.5 0 0 1-.5-.5v-2C1 24.57 2.57 23 4.5 23H5a.5.5 0 0 1 0 1h-.5A2.502 2.502 0 0 0 2 26.5V28h13v-1.5c0-1.379-1.121-2.5-2.5-2.5h-5a.5.5 0 0 1 0-1h5c1.93 0 3.5 1.57 3.5 3.5v2a.5.5 0 0 1-.5.5z" fill="#0043bf" data-original="#000000" opacity="1" class=""></path><path d="M14.5 31h-12a.5.5 0 0 1-.5-.5v-2a.5.5 0 0 1 .5-.5h12a.5.5 0 0 1 .5.5v2a.5.5 0 0 1-.5.5zM3 30h11v-1H3zM10.5 22a.5.5 0 0 1-.5-.5c0-.275-.225-.5-.5-.5h-2c-.275 0-.5.225-.5.5a.5.5 0 0 1-1 0c0-.827.673-1.5 1.5-1.5h2c.827 0 1.5.673 1.5 1.5a.5.5 0 0 1-.5.5zM21.029 20h-.012a.501.501 0 0 1-.373-.18l-2.5-3a.502.502 0 0 1 .769-.641l2.133 2.561 5.113-5.578a.5.5 0 1 1 .736.676l-5.498 6a.497.497 0 0 1-.368.162z" fill="#0043bf" data-original="#000000" opacity="1" class=""></path><path d="M21 24c-3.309 0-6-2.691-6-6s2.691-6 6-6c1.064 0 2.109.282 3.023.816a.502.502 0 0 1 .18.684.503.503 0 0 1-.684.18A5.005 5.005 0 0 0 16 18c0 2.757 2.242 5 5 5a5.006 5.006 0 0 0 4.885-6.072.498.498 0 0 1 .381-.596.5.5 0 0 1 .596.381A6.006 6.006 0 0 1 21 24zM20 7.5c0 .275-.225.5-.5.5h-6a.501.501 0 0 1-.5-.5c0-.275.225-.5.5-.5h6c.275 0 .5.225.5.5zM22 5.5c0 .275-.225.5-.5.5h-8a.501.501 0 0 1-.5-.5c0-.275.225-.5.5-.5h8c.275 0 .5.225.5.5z" fill="#0043bf" data-original="#000000" opacity="1" class=""></path></g></svg>