<svg xmlns="http://www.w3.org/2000/svg" version="1.1" xmlns:xlink="http://www.w3.org/1999/xlink" width="512" height="512" x="0" y="0" viewBox="0 0 128 128" style="enable-background:new 0 0 512 512" xml:space="preserve"><g><path d="M123.5.5H33.49c-2.2 0-4 1.79-4 4v54.67c0 2.2 1.79 4 4 4h90.01c2.2 0 4-1.79 4-4V4.5c0-2.21-1.79-4-4-4zM33.49 59.17V4.5h90.01v54.67z" fill="#0043bf" data-original="#000000" opacity="1"></path><path d="M117.54 16.34c-3.23 0-5.86-2.63-5.86-5.86 0-1.1-.9-2-2-2H47.32c-1.1 0-2 .9-2 2 0 3.23-2.63 5.86-5.86 5.86-1.1 0-2 .9-2 2v27c0 1.1.9 2 2 2 3.23 0 5.86 2.63 5.86 5.86 0 1.1.9 2 2 2h62.35c1.1 0 2-.9 2-2 0-3.23 2.63-5.86 5.86-5.86 1.1 0 2-.9 2-2v-27c.01-1.11-.89-2-1.99-2zm-2 27.2a9.878 9.878 0 0 0-7.66 7.66H49.12a9.878 9.878 0 0 0-7.66-7.66V20.13a9.878 9.878 0 0 0 7.66-7.66h58.76a9.878 9.878 0 0 0 7.66 7.66z" fill="#0043bf" data-original="#000000" opacity="1"></path><path d="M78.5 17.14c-8.1 0-14.69 6.59-14.69 14.69s6.59 14.7 14.69 14.7 14.69-6.59 14.69-14.69-6.59-14.7-14.69-14.7zm0 25.39c-5.9 0-10.69-4.8-10.69-10.69s4.8-10.69 10.69-10.69 10.69 4.8 10.69 10.69-4.8 10.69-10.69 10.69zM52.41 25.12c-3.71 0-6.72 3.01-6.72 6.72s3.01 6.72 6.72 6.72 6.72-3.01 6.72-6.72-3.01-6.72-6.72-6.72zm0 9.44c-1.5 0-2.72-1.22-2.72-2.72s1.22-2.72 2.72-2.72 2.72 1.22 2.72 2.72-1.22 2.72-2.72 2.72zM104.58 25.12c-3.71 0-6.72 3.01-6.72 6.72s3.01 6.72 6.72 6.72 6.72-3.01 6.72-6.72-3.01-6.72-6.72-6.72zm0 9.44c-1.5 0-2.72-1.22-2.72-2.72s1.22-2.72 2.72-2.72 2.72 1.22 2.72 2.72-1.22 2.72-2.72 2.72zM106.68 93.32l-26.51 5.06a8.545 8.545 0 0 0-2.18-3.7c-1.63-1.61-3.77-2.5-6.04-2.5h-8.1c-1.49 0-2.96-.41-4.26-1.19-1.28-.76-2.4-1.88-3.24-3.23C54.12 84.15 50.24 82 45.99 82H28.73v-5.85c0-1.1-.9-2-2-2H2.5c-1.1 0-2 .9-2 2v49.34c0 1.1.9 2 2 2h24.23c1.1 0 2-.9 2-2v-6.12l32.74 4.79c1.33.19 2.67.29 4.01.29 3.48 0 6.96-.66 10.27-1.95L111 107.33c3.24-1.33 5.08-4.66 4.47-8.1-.7-3.96-4.62-6.61-8.79-5.91zM24.73 123.5H4.5V78.16h20.23V117.07zm84.74-19.85c-.01 0-.03.01-.04.02l-35.2 15.15c-3.86 1.51-8.07 2-12.18 1.4l-33.32-4.88V86.01h17.26c2.86 0 5.46 1.45 6.96 3.87 1.18 1.9 2.77 3.48 4.59 4.56 1.91 1.15 4.09 1.75 6.31 1.75h8.1c1.21 0 2.36.48 3.21 1.32.66.67 1.09 1.51 1.26 2.4-.11.25-.18.53-.18.82 0 2.51-2.04 4.56-4.56 4.56H43.52c-1.1 0-2 .9-2 2s.9 2 2 2h28.16c4.12 0 7.57-2.93 8.38-6.81l27.34-5.22c1.92-.33 3.81.89 4.12 2.68.28 1.58-.56 3.1-2.05 3.71z" fill="#0043bf" data-original="#000000" opacity="1"></path></g></svg>