<svg xmlns="http://www.w3.org/2000/svg" version="1.1" xmlns:xlink="http://www.w3.org/1999/xlink" width="512" height="512" x="0" y="0" viewBox="0 0 512 512" style="enable-background:new 0 0 512 512" xml:space="preserve" class=""><g><path d="M183.716 243.48c11.133 0 22.27-4.239 30.745-12.715 8.213-8.212 12.735-19.131 12.735-30.745s-4.522-22.533-12.735-30.745c-16.953-16.953-44.537-16.953-61.49 0s-16.953 44.537 0 61.49c8.478 8.478 19.61 12.715 30.745 12.715zm-19.431-62.892c5.357-5.357 12.395-8.036 19.432-8.036s14.074 2.679 19.432 8.036c5.19 5.19 8.049 12.091 8.049 19.432s-2.859 14.241-8.049 19.432c-10.715 10.715-28.148 10.715-38.863 0-10.716-10.715-10.716-28.149-.001-38.864zm133.254 100.647c-8.212 8.212-12.735 19.131-12.735 30.745s4.522 22.533 12.735 30.746c8.477 8.477 19.609 12.715 30.745 12.714 11.133-.001 22.27-4.239 30.745-12.714 8.213-8.213 12.735-19.132 12.735-30.746s-4.523-22.533-12.735-30.744c-8.212-8.213-19.131-12.736-30.745-12.736-11.615 0-22.534 4.523-30.745 12.735zm58.225 30.745c0 7.341-2.859 14.241-8.049 19.432-10.714 10.716-28.148 10.714-38.863 0-5.19-5.19-8.049-12.091-8.049-19.432 0-7.34 2.859-14.241 8.049-19.431v-.001c5.19-5.19 12.091-8.049 19.431-8.049s14.241 2.858 19.432 8.05c5.19 5.19 8.049 12.092 8.049 19.431zm-196.882 29.824 182.921-182.921a8 8 0 0 1 11.313 0 7.998 7.998 0 0 1 0 11.313l-182.92 182.922c-1.562 1.562-3.609 2.343-5.657 2.343s-4.095-.781-5.657-2.343a8 8 0 0 1 0-11.314zM13.203 305.819c-7.183 19.45-.157 41.075 17.087 52.588l35.372 23.617c6.001 4.007 9.708 9.108 11.664 16.054l11.53 40.938c5.621 19.959 24 33.308 44.734 32.503l42.498-1.685c7.214-.285 13.207 1.662 18.872 6.132l33.392 26.342c8.14 6.423 17.892 9.634 27.647 9.633 9.753-.001 19.509-3.212 27.647-9.632l33.392-26.343c5.666-4.47 11.663-6.427 18.872-6.132l42.498 1.685c20.721.812 39.113-12.545 44.734-32.502l11.53-40.938c1.957-6.945 5.663-12.047 11.664-16.054l35.372-23.617c17.244-11.513 24.271-33.138 17.087-52.588l-14.735-39.897c-2.5-6.77-2.5-13.075 0-19.844l14.735-39.897c7.183-19.451.157-41.076-17.087-52.588l-35.373-23.617c-6.001-4.007-9.707-9.108-11.664-16.053l-11.53-40.939c-5.621-19.958-24.039-33.335-44.734-32.501l-42.498 1.685c-7.206.281-13.207-1.662-18.872-6.132l-33.39-26.346c-16.278-12.842-39.017-12.842-55.295 0L194.96 36.035c-5.666 4.47-11.658 6.418-18.872 6.132l-42.498-1.685c-20.7-.813-39.113 12.543-44.734 32.501l-11.531 40.939c-1.957 6.945-5.663 12.046-11.664 16.053l-35.372 23.617C13.046 165.105 6.02 186.73 13.203 206.181l14.735 39.898c2.5 6.769 2.5 13.074 0 19.843zm29.744-34.354c3.79-10.262 3.79-20.668 0-30.93l-14.735-39.897c-4.681-12.677-.276-26.235 10.963-33.739l35.373-23.617c9.097-6.075 15.214-14.493 18.179-25.022l11.531-40.939c3.664-13.007 15.188-21.381 28.7-20.851l42.498 1.685c10.928.436 20.827-2.783 29.416-9.558l33.392-26.343c10.609-8.369 24.865-8.369 35.475 0l33.392 26.343c8.588 6.775 18.488 9.995 29.416 9.558l42.498-1.685c13.509-.531 25.037 7.845 28.7 20.852l11.53 40.939c2.965 10.529 9.082 18.947 18.179 25.022l35.373 23.617c11.238 7.503 15.644 21.062 10.962 33.739l-14.735 39.897c-3.79 10.262-3.79 20.668 0 30.93l14.735 39.897c4.681 12.677.276 26.235-10.963 33.738l-35.373 23.617c-9.097 6.075-15.213 14.494-18.179 25.022l-11.53 40.938c-3.664 13.008-15.203 21.369-28.7 20.853l-42.498-1.685c-10.938-.441-20.827 2.781-29.416 9.557l-33.392 26.344c-10.609 8.369-24.865 8.37-35.475-.001l-33.392-26.342c-8.078-6.373-17.313-9.597-27.477-9.597-.643 0-1.289.013-1.939.039l-42.499 1.685c-13.501.519-25.036-7.844-28.699-20.853l-11.53-40.938c-2.965-10.528-9.082-18.947-18.179-25.022l-35.373-23.617c-11.238-7.503-15.644-21.062-10.962-33.738z" fill="#0043bf" data-original="#000000" opacity="1"></path></g></svg>