<svg xmlns="http://www.w3.org/2000/svg" version="1.1" xmlns:xlink="http://www.w3.org/1999/xlink" width="512" height="512" x="0" y="0" viewBox="0 0 512 512" style="enable-background:new 0 0 512 512" xml:space="preserve"><g><path d="m476.158 231.363-13.259-53.035c3.625-.77 6.345-3.986 6.345-7.839v-8.551c0-18.566-15.105-33.67-33.67-33.67h-60.392V110.63c0-9.136-7.432-16.568-16.568-16.568H50.772c-9.136 0-16.568 7.432-16.568 16.568V256a8.017 8.017 0 0 0 16.034 0V110.63c0-.295.239-.534.534-.534h307.841c.295 0 .534.239.534.534v145.372a8.017 8.017 0 0 0 16.034 0v-9.088h94.569l.021.002.022-.001c11.637.008 21.518 7.646 24.912 18.171h-24.928a8.017 8.017 0 0 0-8.017 8.017v17.102c0 13.851 11.268 25.119 25.119 25.119h9.086v35.273h-20.962c-6.886-19.883-25.787-34.205-47.982-34.205s-41.097 14.322-47.982 34.205h-3.86v-60.393a8.017 8.017 0 0 0-16.034 0v60.391H192.817c-6.886-19.883-25.787-34.205-47.982-34.205s-41.097 14.322-47.982 34.205H50.772a.534.534 0 0 1-.534-.534v-17.637h34.739a8.017 8.017 0 0 0 0-16.034H8.017a8.017 8.017 0 0 0 0 16.034h26.188v17.637c0 9.136 7.432 16.568 16.568 16.568h43.304c-.002.178-.014.355-.014.534 0 27.996 22.777 50.772 50.772 50.772s50.772-22.776 50.772-50.772c0-.18-.012-.356-.014-.534h180.67c-.002.178-.014.355-.014.534 0 27.996 22.777 50.772 50.772 50.772 27.995 0 50.772-22.776 50.772-50.772 0-.18-.012-.356-.014-.534h26.203a8.017 8.017 0 0 0 8.017-8.017v-85.511c.001-21.112-15.576-38.653-35.841-41.738zm-100.976-87.062h60.392c9.725 0 17.637 7.912 17.637 17.637v.534h-78.029v-18.171zm0 86.58v-52.376h71.235l13.094 52.376h-84.329zM144.835 401.904c-19.155 0-34.739-15.583-34.739-34.739s15.584-34.739 34.739-34.739c19.155 0 34.739 15.583 34.739 34.739s-15.584 34.739-34.739 34.739zm282.188 0c-19.155 0-34.739-15.583-34.739-34.739s15.584-34.739 34.739-34.739c19.155 0 34.739 15.583 34.739 34.739s-15.584 34.739-34.739 34.739zm68.944-102.614h-9.086c-5.01 0-9.086-4.076-9.086-9.086v-9.086h18.171v18.172z" fill="#0043bf" data-original="#000000" opacity="1"></path><path d="M144.835 350.597c-9.136 0-16.568 7.432-16.568 16.568 0 9.136 7.432 16.568 16.568 16.568 9.136 0 16.568-7.432 16.568-16.568 0-9.136-7.432-16.568-16.568-16.568zM427.023 350.597c-9.136 0-16.568 7.432-16.568 16.568 0 9.136 7.432 16.568 16.568 16.568 9.136 0 16.568-7.432 16.568-16.568 0-9.136-7.432-16.568-16.568-16.568zM332.96 316.393H213.244a8.017 8.017 0 0 0 0 16.034H332.96a8.017 8.017 0 0 0 0-16.034zM127.733 282.188H25.119a8.017 8.017 0 0 0 0 16.034h102.614a8.017 8.017 0 0 0 0-16.034zM278.771 173.37a8.017 8.017 0 0 0-11.337.001l-71.292 71.291-37.087-37.087a8.016 8.016 0 0 0-11.337 0 8.016 8.016 0 0 0 0 11.337l42.756 42.756c1.565 1.566 3.617 2.348 5.668 2.348s4.104-.782 5.668-2.348l76.96-76.96a8.018 8.018 0 0 0 .001-11.338z" fill="#0043bf" data-original="#000000" opacity="1"></path></g></svg>