<svg xmlns="http://www.w3.org/2000/svg" version="1.1" xmlns:xlink="http://www.w3.org/1999/xlink" width="512" height="512" x="0" y="0" viewBox="0 0 512 512" style="enable-background:new 0 0 512 512" xml:space="preserve"><g><path d="m209.473 106.801-10.496 50.97a7.999 7.999 0 0 0 11.791 8.566L256 140.605l45.231 25.732a7.993 7.993 0 0 0 8.658-.482 7.997 7.997 0 0 0 3.133-8.085l-10.495-50.97 38.45-35.066a8.001 8.001 0 0 0-4.504-13.862l-51.718-5.769L263.288 4.7a8 8 0 0 0-14.576 0l-21.468 47.405-51.718 5.769a8 8 0 0 0-4.504 13.862zm24.068-39.3a8 8 0 0 0 6.401-4.65L256 27.392l16.058 35.458a8 8 0 0 0 6.401 4.65l38.686 4.315-28.761 26.229a8 8 0 0 0-2.445 7.524l7.851 38.126-33.833-19.248a8.003 8.003 0 0 0-7.912 0l-33.833 19.248 7.851-38.125a7.999 7.999 0 0 0-2.445-7.524l-28.761-26.229zM44.219 177.135a7.998 7.998 0 0 0 11.791 8.566l34.598-19.683 34.598 19.683a7.993 7.993 0 0 0 8.658-.482 7.997 7.997 0 0 0 3.133-8.085l-8.028-38.987 29.41-26.822a8.001 8.001 0 0 0-4.504-13.862l-39.559-4.413-16.42-36.258a8 8 0 0 0-14.576 0l-16.421 36.26-39.559 4.412a8 8 0 0 0-4.504 13.862l29.41 26.822zm2.451-65.727 26.526-2.959a8 8 0 0 0 6.401-4.65l11.011-24.314 11.011 24.313a8 8 0 0 0 6.401 4.65l26.526 2.959-19.721 17.985a8 8 0 0 0-2.445 7.524l5.383 26.143-23.199-13.198a8.003 8.003 0 0 0-7.912 0L63.453 163.06l5.383-26.143a7.999 7.999 0 0 0-2.445-7.524zm444.711-8.465a8.003 8.003 0 0 0-6.722-5.479L445.1 93.051l-16.42-36.259a8 8 0 0 0-14.576 0l-16.421 36.26-39.559 4.413a8 8 0 0 0-4.504 13.862l29.41 26.822-8.028 38.987a7.998 7.998 0 0 0 11.791 8.566l34.598-19.683 34.598 19.683a7.993 7.993 0 0 0 8.658-.482 7.997 7.997 0 0 0 3.133-8.085l-8.028-38.987 29.41-26.822a7.998 7.998 0 0 0 2.219-8.383zm-45.772 26.45a8 8 0 0 0-2.445 7.524l5.383 26.143-23.199-13.198a8.003 8.003 0 0 0-7.912 0l-23.199 13.198 5.383-26.143a7.999 7.999 0 0 0-2.445-7.524l-19.721-17.985 26.526-2.958a8 8 0 0 0 6.401-4.65l11.011-24.314 11.011 24.314a8 8 0 0 0 6.401 4.65l26.526 2.959zm-18.874 83.257c-1.685-4.345-7.145-6.353-11.234-4.162l-40.311 21.576c-9.233 4.805-18.771 1.341-33.565-4.707-20.266-8.284-47.707-19.472-83.438 2.687-25.982-15.373-48.177-10.144-66.204-5.886-13.874 3.278-24.832 5.866-35.428-.097a7.69 7.69 0 0 0-.572-.292l-52.66-24.294a8 8 0 0 0-10.591 3.861L37.731 318.361c-1.925 4.095.06 9.13 4.242 10.82.709.306 49.122 22.098 53.738 23.891 3.869 1.501 5.072 5.944 6.729 15.024.886 4.859 1.798 9.84 3.845 14.37l-7.886 14.744c-8.042 15.037-2.352 33.813 12.685 41.855a30.737 30.737 0 0 0 16.542 3.584c-2.547 12.985 3.496 26.681 15.758 33.239 9.004 4.816 21.545 4.491 30.326-.665 2.656 6.3 7.397 11.767 13.882 15.236 8.56 4.579 19.01 4.785 27.784.675 2.449 7.132 7.483 13.395 14.641 17.224 13.404 7.169 30.9 3.201 39.804-9.379l10.883 5.986a30.734 30.734 0 0 0 14.852 3.823c10.921 0 21.525-5.79 27.15-16.016 3.587-6.522 4.558-13.798 3.266-20.61 10.289-.585 20.07-6.281 25.392-15.958 3.018-5.487 4.165-11.528 3.662-17.384 1.442.205 2.889.318 4.331.318 10.921 0 21.524-5.79 27.149-16.016 3.417-6.212 4.432-13.133 3.372-19.691a31.06 31.06 0 0 0 7.918-1.173c8.058-2.29 14.708-7.574 18.725-14.877 3.434-6.243 4.435-13.224 3.323-19.836l50.328-21.458a7.999 7.999 0 0 0 4.321-10.25c-.004.001-47.605-122.793-47.758-123.187zM118.628 424.958c-7.257-3.881-10.003-12.943-6.122-20.201l14.558-27.219c3.82-7.141 13.086-9.926 20.213-6.115 7.137 3.816 9.924 13.062 6.111 20.194l-14.585 27.263c-3.895 7.223-12.932 9.952-20.175 6.078zm43.662 37.92c-3.833 1.163-7.867.772-11.361-1.096-7.257-3.882-10.003-12.943-6.122-20.201l19.764-36.948c3.695-6.908 13.274-9.739 20.175-6.049 7.131 3.813 9.922 13.064 6.11 20.194l-19.726 36.881c-1.869 3.494-5.008 6.058-8.84 7.219zm44.207 14.57c-3.834 1.16-7.868.772-11.36-1.096-7.257-3.881-10.003-12.944-6.122-20.202l15.95-29.826v-.001c1.868-3.493 5.007-6.056 8.839-7.217 3.833-1.162 7.869-.772 11.374 1.103 3.476 1.851 6.031 4.979 7.195 8.808 1.169 3.847.784 7.89-1.085 11.386l-15.951 29.827c-1.868 3.493-5.008 6.057-8.84 7.218zm42.424 17.899c-3.833 1.162-7.867.772-11.361-1.096-7.257-3.881-10.003-12.943-6.122-20.201l13.958-26.101c3.825-7.153 13.062-9.941 20.212-6.114 7.009 3.752 9.95 13.013 6.11 20.194L257.76 488.13c-1.866 3.493-5.006 6.056-8.839 7.217zm59.763-10.285c-3.966 7.21-13.059 9.85-20.272 5.884l-10.828-5.955 8.245-15.418a30.693 30.693 0 0 0 3.55-12.164l13.329 7.33.072.04c7.211 3.993 9.859 13.091 5.904 20.283zm93.814-105.391c-3.823 6.951-13.249 9.85-20.191 5.928l-56.841-32.106a8 8 0 0 0-10.9 3.031 8 8 0 0 0 3.031 10.9l48.934 27.678c7.21 4.059 9.88 13.169 5.953 20.31-3.966 7.211-13.06 9.851-20.271 5.884l-61.917-34.602a8 8 0 1 0-7.848 13.944l48.942 27.545c7.21 4.059 9.88 13.169 5.953 20.31-3.966 7.21-13.059 9.851-20.271 5.884l-34.79-19.236a30.563 30.563 0 0 0-9.136-7.423c-7.262-3.884-15.625-4.7-23.547-2.3-.502.152-.997.316-1.487.491a32.367 32.367 0 0 0-.427-1.548c-2.409-7.922-7.729-14.412-14.97-18.269-7.261-3.884-15.625-4.702-23.547-2.3-.502.152-.998.316-1.488.491a32.01 32.01 0 0 0-.427-1.547c-2.409-7.922-7.729-14.413-14.971-18.27-6.78-3.626-14.318-4.452-21.292-2.897a31.474 31.474 0 0 0-1.206-5.996c-2.409-7.922-7.73-14.413-14.971-18.269-7.262-3.884-15.624-4.702-23.547-2.3-5.213 1.58-9.805 4.431-13.447 8.26-1.712-9.106-4.543-20.541-16.317-25.112-4.606-1.789-29.697-13.095-43.176-19.169l-2.649-1.193 48.157-102.463 45.169 20.838c15.939 8.818 31.554 5.129 46.659 1.561 15.622-3.69 30.511-7.207 48.093.778a168.99 168.99 0 0 0-12.186 11.19c-15.483 15.646-35.273 30.419-58.819 43.907a8 8 0 0 0-2.498 11.64c30.916 42.601 67.488 27.794 96.875 15.898 19.567-7.922 36.466-14.763 50.092-6.997l79.292 45.194c7.206 4.114 9.893 13.233 5.987 20.335zm10.775-26.718a31.207 31.207 0 0 0-8.841-7.513l-79.292-45.194c-6.939-3.955-14.087-5.519-21.35-5.519-14.05 0-28.52 5.857-42.669 11.585-26.878 10.881-50.378 20.396-72.341-3.586 21.293-12.917 39.484-26.944 54.16-41.774 6.462-6.531 13.026-12.114 19.508-16.594 30.977-21.416 52.402-12.659 73.123-4.189 15.104 6.174 30.724 12.559 47.085 4.046l32.426-17.355 41.69 107.546z" fill="#0043bf" data-original="#000000" opacity="1"></path></g></svg>